<svg width="355" height="320" viewBox="0 0 355 320" fill="none" xmlns="http://www.w3.org/2000/svg">
<path d="M18.0836 116.597C-31.3697 195.697 32.2307 273.491 70.2125 302.5H296.258C299.334 302.5 317.076 288.963 343.774 225.496C382.968 132.322 307.859 80.5926 296.258 74.9425C282.162 68.0765 252.508 71.4829 217.048 84.2467C177.497 98.4829 143.251 48.4595 120.582 46.0074C118.17 44.0457 67.5369 37.4977 18.0836 116.597Z" fill="#FFF2F2" fill-opacity="0.63"/>
<path d="M208.34 177.486C208.343 177.909 208.259 178.311 208.105 178.677C207.652 179.75 206.594 180.506 205.356 180.517C204.117 180.527 203.048 179.788 202.579 178.723C202.418 178.36 202.328 177.958 202.324 177.536C202.322 177.213 202.37 176.901 202.462 176.609C202.843 175.399 203.97 174.516 205.308 174.505C206.646 174.494 207.787 175.358 208.187 176.562C208.284 176.852 208.337 177.163 208.34 177.486Z" fill="#F49F9F"/>
<path d="M205.266 169.211C204.567 169.217 204.001 169.365 204.003 169.542L204.044 174.765C204.046 174.943 204.613 175.082 205.312 175.076C206.011 175.07 206.577 174.922 206.576 174.744L206.534 169.521C206.533 169.344 205.965 169.205 205.266 169.211Z" fill="#E8505B"/>
<path d="M203.844 179.574L203.85 180.314C203.852 180.507 204.526 180.659 205.357 180.652C206.187 180.645 206.86 180.483 206.858 180.289L206.852 179.549L203.844 179.574Z" fill="#F49F9F"/>
<path d="M208.34 177.486C208.343 177.909 208.259 178.311 208.105 178.677C207.531 178.822 206.509 178.924 205.343 178.933C204.178 178.943 203.155 178.859 202.579 178.723C202.418 178.36 202.328 177.958 202.324 177.536C202.322 177.213 202.37 176.901 202.462 176.609C203.015 176.759 204.09 176.854 205.326 176.844C206.563 176.834 207.637 176.72 208.187 176.562C208.284 176.852 208.337 177.163 208.34 177.486Z" fill="#E8505B"/>
<path d="M218.095 177.486C218.098 177.909 218.014 178.311 217.86 178.677C217.407 179.75 216.349 180.506 215.111 180.517C213.872 180.527 212.803 179.788 212.333 178.723C212.173 178.36 212.083 177.958 212.079 177.536C212.076 177.213 212.125 176.901 212.217 176.609C212.598 175.399 213.725 174.516 215.063 174.505C216.401 174.494 217.542 175.358 217.942 176.562C218.039 176.852 218.092 177.163 218.095 177.486Z" fill="#F49F9F"/>
<path d="M215.021 169.211C214.322 169.217 213.756 169.365 213.758 169.542L213.799 174.765C213.801 174.943 214.368 175.082 215.068 175.076C215.766 175.07 216.332 174.922 216.33 174.744L216.288 169.521C216.288 169.344 215.72 169.205 215.021 169.211Z" fill="#E8505B"/>
<path d="M213.599 179.574L213.605 180.314C213.607 180.507 214.281 180.659 215.112 180.652C215.942 180.645 216.614 180.483 216.613 180.289L216.607 179.549L213.599 179.574Z" fill="#F49F9F"/>
<path d="M218.095 177.486C218.098 177.909 218.014 178.311 217.86 178.677C217.286 178.822 216.264 178.924 215.098 178.933C213.933 178.943 212.91 178.859 212.333 178.723C212.173 178.36 212.082 177.958 212.079 177.536C212.076 177.213 212.125 176.901 212.217 176.609C212.77 176.759 213.845 176.854 215.081 176.844C216.317 176.834 217.392 176.72 217.942 176.562C218.039 176.852 218.092 177.163 218.095 177.486Z" fill="#E8505B"/>
<path d="M227.85 177.486C227.853 177.909 227.769 178.311 227.615 178.677C227.162 179.75 226.104 180.506 224.866 180.517C223.627 180.527 222.557 179.788 222.088 178.723C221.928 178.36 221.837 177.958 221.834 177.536C221.831 177.213 221.88 176.901 221.972 176.609C222.353 175.399 223.48 174.516 224.818 174.505C226.156 174.494 227.297 175.358 227.697 176.562C227.794 176.852 227.847 177.163 227.85 177.486Z" fill="#F49F9F"/>
<path d="M224.776 169.211C224.077 169.217 223.511 169.365 223.513 169.542L223.554 174.765C223.556 174.943 224.123 175.082 224.822 175.076C225.521 175.07 226.087 174.922 226.085 174.744L226.044 169.521C226.042 169.344 225.475 169.205 224.776 169.211Z" fill="#E8505B"/>
<path d="M223.354 179.574L223.36 180.314C223.362 180.507 224.036 180.659 224.866 180.652C225.697 180.645 226.369 180.483 226.368 180.289L226.362 179.549L223.354 179.574Z" fill="#F49F9F"/>
<path d="M227.85 177.486C227.853 177.909 227.769 178.311 227.615 178.677C227.04 178.822 226.019 178.924 224.853 178.933C223.687 178.943 222.664 178.859 222.088 178.723C221.928 178.36 221.837 177.958 221.834 177.536C221.831 177.213 221.88 176.901 221.972 176.609C222.525 176.759 223.6 176.854 224.836 176.844C226.072 176.834 227.147 176.72 227.697 176.562C227.794 176.852 227.847 177.163 227.85 177.486Z" fill="#E8505B"/>
<path d="M237.605 177.486C237.608 177.909 237.524 178.311 237.37 178.677C236.917 179.75 235.859 180.506 234.621 180.517C233.382 180.527 232.313 179.788 231.843 178.723C231.683 178.36 231.592 177.958 231.589 177.536C231.586 177.213 231.635 176.901 231.727 176.609C232.108 175.399 233.235 174.516 234.573 174.505C235.911 174.494 237.052 175.358 237.452 176.562C237.549 176.852 237.602 177.163 237.605 177.486Z" fill="#F49F9F"/>
<path d="M234.531 169.211C233.832 169.217 233.266 169.365 233.268 169.542L233.309 174.765C233.31 174.943 233.878 175.082 234.577 175.076C235.276 175.07 235.841 174.922 235.84 174.744L235.798 169.521C235.797 169.344 235.229 169.205 234.531 169.211Z" fill="#E8505B"/>
<path d="M233.109 179.574L233.115 180.314C233.116 180.507 233.791 180.659 234.622 180.652C235.452 180.645 236.124 180.483 236.122 180.289L236.117 179.549L233.109 179.574Z" fill="#F49F9F"/>
<path d="M237.605 177.486C237.608 177.909 237.524 178.311 237.37 178.677C236.795 178.822 235.774 178.924 234.608 178.933C233.442 178.943 232.42 178.859 231.843 178.723C231.682 178.36 231.592 177.958 231.588 177.536C231.586 177.213 231.635 176.901 231.726 176.609C232.279 176.759 233.355 176.854 234.591 176.844C235.827 176.834 236.901 176.72 237.452 176.562C237.549 176.852 237.602 177.163 237.605 177.486Z" fill="#E8505B"/>
<path d="M261.987 180.69H179.138V181.7H261.987V180.69Z" fill="#1B1B1B"/>
<path d="M238.237 115.203H229.259V132.645H238.237V115.203Z" fill="#E8505B"/>
<path d="M237.509 123.335C237.509 125.412 235.825 127.096 233.748 127.096C231.671 127.096 229.988 125.412 229.988 123.335C229.988 121.258 231.671 119.575 233.748 119.575C235.825 119.575 237.509 121.258 237.509 123.335Z" fill="#FCB4B4"/>
<path d="M236.205 123.491H231.292C231.205 123.491 231.135 123.422 231.135 123.335C231.135 123.249 231.205 123.179 231.292 123.179H236.205C236.291 123.179 236.361 123.249 236.361 123.335C236.361 123.422 236.291 123.491 236.205 123.491Z" fill="#F49F9F"/>
<path d="M236.205 122.287H231.292C231.205 122.287 231.135 122.217 231.135 122.13C231.135 122.044 231.205 121.974 231.292 121.974H236.205C236.291 121.974 236.361 122.044 236.361 122.13C236.361 122.217 236.291 122.287 236.205 122.287Z" fill="#F49F9F"/>
<path d="M236.205 124.696H231.292C231.205 124.696 231.135 124.626 231.135 124.54C231.135 124.454 231.205 124.384 231.292 124.384H236.205C236.291 124.384 236.361 124.454 236.361 124.54C236.361 124.626 236.291 124.696 236.205 124.696Z" fill="#F49F9F"/>
<path d="M237.045 111.366H230.452V115.202H237.045V111.366Z" fill="#FCB4B4"/>
<path d="M190.926 111.964C190.682 111.956 190.393 111.96 190.078 111.972C188.468 112.029 186.214 112.293 186.214 112.293C186.214 112.293 184.977 107.387 182.195 104.321C181.275 103.308 180.185 102.496 178.915 102.129C181.552 102.159 183.941 101.959 187.665 106.886C188.359 107.804 189.101 108.902 189.899 110.214C190.232 110.759 190.573 111.341 190.926 111.964Z" fill="#1F9DA3"/>
<path d="M190.078 111.972C188.468 112.029 186.214 112.293 186.214 112.293C186.214 112.293 184.977 107.387 182.195 104.321C182.658 104.464 185.387 105.342 187.665 106.886C188.359 107.804 189.101 108.902 189.899 110.214C190.019 110.947 190.063 111.579 190.078 111.972Z" fill="#037F8C"/>
<path d="M190.319 102.823C190.319 102.626 189.779 95.5272 187.087 92.5009C189.853 93.8143 191.019 95.787 192.745 104.204C192.978 106.506 191.998 108.808 191.998 108.808L190.319 102.823Z" fill="#037F8C"/>
<path d="M195.264 110.517C195.264 110.517 195.531 94.5474 199.386 91.2217C197.27 91.5127 195.264 96.1156 194.658 99.2723C194.751 101.442 195.264 110.517 195.264 110.517Z" fill="#1F9DA3"/>
<path d="M208.428 102.022C203.886 102.451 201.179 112.044 201.179 112.044C201.179 112.044 198.537 111.989 196.921 112.044C197.934 109.452 199.006 107.492 200.079 106.02C203.367 101.506 206.658 101.554 208.223 101.965C208.295 101.983 208.363 102.002 208.428 102.022Z" fill="#61C6C3"/>
<path d="M208.223 101.964C208.211 101.97 208.199 101.976 208.187 101.981C204.931 102.217 200.061 106.1 200.061 106.1L200.079 106.02C203.367 101.506 206.658 101.554 208.223 101.964Z" fill="#81CCC8"/>
<path d="M204.314 94.9985C203.373 94.9985 202.431 95.8473 200.994 98.5981C200.935 98.71 200.875 98.8258 200.815 98.944C199.276 101.968 197.929 112.449 197.929 112.449L195.031 112.097C195.031 112.097 195.157 111.371 195.377 110.237C195.874 107.692 196.85 103.091 197.967 100.011C199.583 95.5585 202.512 94.0745 204.314 94.9985Z" fill="#1F9DA3"/>
<path d="M201.135 98.0515C201.076 98.1634 200.976 98.826 200.916 98.9442C199.377 101.968 198.03 112.45 198.03 112.45L195.132 112.097C195.132 112.097 195.257 111.371 195.478 110.237C195.785 110.147 196.031 110.076 196.031 110.076C196.031 109.935 197.373 102.549 199.12 100.371C199.924 99.3689 200.641 98.3122 201.135 98.0515Z" fill="#037F8C"/>
<path d="M196.571 112.029C194.331 111.768 191.766 112.029 191.766 112.029C191.766 112.029 191.461 109.712 191.389 106.528C191.265 101.164 191.798 93.3431 195.544 90.0001C195.544 90.0001 195.544 90.0014 195.543 90.0028C194.891 93.8847 194.145 104.995 196.571 112.029Z" fill="#61C6C3"/>
<path d="M195.544 90C195.544 90 195.544 90.0013 195.543 90.0027C195.491 90.0836 193.838 92.7266 193.243 97.2472C192.638 101.839 191.999 108.807 191.999 108.807L191.389 106.528C191.265 101.164 191.798 93.3429 195.544 90Z" fill="#81CCC8"/>
<path d="M193.671 112.018L189.503 112.449C189.503 112.449 188.966 105.652 187.753 101.772C187.271 100.226 186.748 99.0439 186.193 98.1064C185.353 96.6886 184.435 95.8307 183.458 95.1216C186.224 94.9742 187.564 95.7573 189.617 100.23C190.006 101.076 190.392 102.025 190.764 103.006C192.355 107.21 193.671 112.018 193.671 112.018Z" fill="#1F9DA3"/>
<path d="M190.765 103.006C190.763 103.091 190.761 103.176 190.758 103.259C189.885 101.052 187.613 99.1392 186.193 98.1064C185.353 96.6886 184.436 95.8307 183.458 95.1216C186.224 94.9742 187.564 95.7573 189.617 100.23C190.006 101.076 190.392 102.025 190.765 103.006Z" fill="#61C6C3"/>
<path d="M193.839 111.194H184.136V117.053H186.312L189.395 132.647H193.839H198.282L201.365 117.053H203.542V111.194H193.839Z" fill="#E8505B"/>
<path d="M186.312 117.054H201.365L200.462 121.356H187.102L186.312 117.054Z" fill="#F49F9F"/>
<path d="M188.83 177.486C188.833 177.909 188.749 178.311 188.595 178.677C188.142 179.75 187.084 180.506 185.846 180.517C184.608 180.527 183.538 179.788 183.069 178.723C182.908 178.36 182.818 177.958 182.814 177.536C182.812 177.213 182.86 176.901 182.952 176.609C183.333 175.399 184.46 174.516 185.798 174.505C187.136 174.494 188.277 175.358 188.677 176.562C188.774 176.852 188.828 177.163 188.83 177.486Z" fill="#F49F9F"/>
<path d="M185.756 169.211C185.057 169.217 184.492 169.365 184.493 169.542L184.535 174.765C184.536 174.943 185.104 175.082 185.803 175.076C186.501 175.07 187.067 174.922 187.066 174.744L187.024 169.521C187.023 169.344 186.455 169.205 185.756 169.211Z" fill="#E8505B"/>
<path d="M184.335 179.574L184.34 180.314C184.342 180.507 185.017 180.659 185.847 180.652C186.678 180.645 187.35 180.483 187.348 180.289L187.342 179.549L184.335 179.574Z" fill="#F49F9F"/>
<path d="M188.83 177.486C188.833 177.909 188.749 178.311 188.595 178.677C188.021 178.822 186.999 178.924 185.833 178.933C184.668 178.943 183.645 178.859 183.069 178.723C182.908 178.36 182.818 177.958 182.814 177.536C182.812 177.213 182.86 176.901 182.952 176.609C183.505 176.759 184.581 176.854 185.817 176.844C187.053 176.834 188.127 176.72 188.677 176.562C188.774 176.852 188.828 177.163 188.83 177.486Z" fill="#E8505B"/>
<path d="M198.585 177.486C198.588 177.909 198.504 178.311 198.35 178.677C197.897 179.75 196.839 180.506 195.601 180.517C194.362 180.527 193.293 179.788 192.823 178.723C192.663 178.36 192.573 177.958 192.569 177.536C192.567 177.213 192.615 176.901 192.707 176.609C193.088 175.399 194.215 174.516 195.553 174.505C196.891 174.494 198.032 175.358 198.432 176.562C198.529 176.852 198.582 177.163 198.585 177.486Z" fill="#F49F9F"/>
<path d="M195.511 169.211C194.812 169.217 194.247 169.365 194.248 169.542L194.29 174.765C194.291 174.943 194.859 175.082 195.558 175.076C196.257 175.07 196.822 174.922 196.821 174.744L196.779 169.521C196.778 169.344 196.21 169.205 195.511 169.211Z" fill="#E8505B"/>
<path d="M194.089 179.574L194.095 180.314C194.097 180.507 194.771 180.659 195.602 180.652C196.432 180.645 197.104 180.483 197.103 180.289L197.097 179.549L194.089 179.574Z" fill="#F49F9F"/>
<path d="M198.585 177.486C198.588 177.909 198.504 178.311 198.35 178.677C197.776 178.822 196.754 178.924 195.588 178.933C194.423 178.943 193.4 178.859 192.823 178.723C192.663 178.36 192.573 177.958 192.569 177.536C192.567 177.213 192.615 176.901 192.707 176.609C193.26 176.759 194.336 176.854 195.572 176.844C196.808 176.834 197.882 176.72 198.432 176.562C198.529 176.852 198.582 177.163 198.585 177.486Z" fill="#E8505B"/>
<path d="M222.847 129.667C222.85 130.089 222.766 130.492 222.612 130.858C222.159 131.93 221.101 132.687 219.863 132.697C218.624 132.708 217.555 131.969 217.086 130.904C216.925 130.54 216.835 130.139 216.831 129.717C216.829 129.394 216.877 129.082 216.969 128.79C217.35 127.58 218.477 126.697 219.815 126.686C221.153 126.675 222.294 127.538 222.694 128.742C222.791 129.033 222.844 129.344 222.847 129.667Z" fill="#F49F9F"/>
<path d="M219.773 121.392C219.074 121.397 218.508 121.545 218.51 121.723L218.551 126.946C218.553 127.123 219.12 127.262 219.819 127.256C220.518 127.25 221.084 127.102 221.082 126.925L221.041 121.702C221.039 121.525 220.472 121.386 219.773 121.392Z" fill="#E8505B"/>
<path d="M218.351 131.755L218.357 132.495C218.359 132.688 219.033 132.84 219.864 132.833C220.694 132.826 221.366 132.663 221.365 132.47L221.359 131.73L218.351 131.755Z" fill="#F49F9F"/>
<path d="M222.847 129.667C222.85 130.089 222.766 130.492 222.612 130.858C222.038 131.003 221.016 131.105 219.85 131.114C218.685 131.124 217.662 131.039 217.086 130.904C216.925 130.54 216.835 130.139 216.831 129.717C216.829 129.394 216.877 129.082 216.969 128.79C217.522 128.939 218.597 129.035 219.833 129.025C221.07 129.015 222.144 128.901 222.694 128.743C222.791 129.033 222.844 129.344 222.847 129.667Z" fill="#E8505B"/>
<path d="M212.947 129.64C212.95 130.062 212.866 130.465 212.712 130.831C212.259 131.903 211.201 132.66 209.963 132.67C208.725 132.68 207.655 131.941 207.186 130.877C207.025 130.513 206.935 130.112 206.931 129.69C206.929 129.367 206.977 129.055 207.069 128.763C207.45 127.552 208.577 126.67 209.915 126.659C211.253 126.648 212.394 127.511 212.794 128.715C212.891 129.006 212.944 129.317 212.947 129.64Z" fill="#F49F9F"/>
<path d="M209.873 121.364C209.174 121.37 208.608 121.518 208.61 121.696L208.651 126.919C208.653 127.096 209.221 127.235 209.92 127.229C210.619 127.224 211.184 127.075 211.183 126.898L211.141 121.675C211.14 121.498 210.572 121.359 209.873 121.364Z" fill="#E8505B"/>
<path d="M208.452 131.727L208.457 132.467C208.459 132.661 209.133 132.812 209.964 132.805C210.795 132.798 211.467 132.636 211.465 132.442L211.459 131.702L208.452 131.727Z" fill="#F49F9F"/>
<path d="M212.947 129.64C212.95 130.062 212.866 130.465 212.712 130.831C212.138 130.976 211.116 131.077 209.95 131.087C208.785 131.097 207.762 131.012 207.186 130.877C207.025 130.513 206.935 130.112 206.931 129.69C206.929 129.367 206.977 129.055 207.069 128.763C207.622 128.912 208.698 129.008 209.933 128.998C211.17 128.988 212.244 128.874 212.794 128.715C212.891 129.006 212.944 129.317 212.947 129.64Z" fill="#E8505B"/>
<path d="M258.483 129.664C258.487 130.087 258.402 130.489 258.248 130.855C257.796 131.928 256.737 132.684 255.499 132.694C254.261 132.705 253.191 131.966 252.722 130.901C252.561 130.538 252.471 130.136 252.467 129.714C252.465 129.391 252.514 129.079 252.605 128.787C252.986 127.577 254.113 126.694 255.451 126.683C256.789 126.672 257.93 127.536 258.33 128.74C258.428 129.03 258.481 129.341 258.483 129.664Z" fill="#F49F9F"/>
<path d="M255.409 121.389C254.71 121.395 254.145 121.543 254.146 121.72L254.188 126.943C254.189 127.121 254.757 127.259 255.456 127.254C256.155 127.248 256.721 127.099 256.719 126.922L256.677 121.699C256.676 121.522 256.108 121.383 255.409 121.389Z" fill="#E8505B"/>
<path d="M253.988 131.752L253.993 132.492C253.995 132.685 254.669 132.837 255.5 132.83C256.331 132.823 257.003 132.661 257.001 132.467L256.995 131.727L253.988 131.752Z" fill="#F49F9F"/>
<path d="M258.483 129.664C258.487 130.087 258.402 130.489 258.248 130.855C257.674 131 256.652 131.102 255.487 131.111C254.321 131.121 253.298 131.036 252.722 130.901C252.561 130.538 252.471 130.136 252.467 129.714C252.465 129.391 252.514 129.079 252.605 128.787C253.158 128.937 254.234 129.032 255.47 129.022C256.706 129.012 257.78 128.898 258.33 128.74C258.428 129.03 258.481 129.341 258.483 129.664Z" fill="#E8505B"/>
<path d="M248.583 129.637C248.587 130.059 248.503 130.462 248.348 130.828C247.896 131.9 246.838 132.657 245.599 132.667C244.361 132.678 243.291 131.939 242.822 130.874C242.662 130.511 242.571 130.109 242.568 129.687C242.565 129.364 242.614 129.052 242.706 128.76C243.087 127.55 244.214 126.667 245.551 126.656C246.89 126.645 248.031 127.509 248.431 128.713C248.528 129.003 248.581 129.314 248.583 129.637Z" fill="#F49F9F"/>
<path d="M245.509 121.362C244.811 121.367 244.245 121.516 244.247 121.693L244.288 126.916C244.29 127.093 244.857 127.232 245.556 127.226C246.255 127.221 246.821 127.072 246.819 126.895L246.777 121.672C246.776 121.495 246.209 121.356 245.509 121.362Z" fill="#E8505B"/>
<path d="M244.088 131.725L244.094 132.465C244.095 132.658 244.77 132.809 245.601 132.803C246.431 132.796 247.103 132.633 247.102 132.44L247.096 131.7L244.088 131.725Z" fill="#F49F9F"/>
<path d="M248.583 129.637C248.587 130.059 248.503 130.462 248.348 130.828C247.774 130.973 246.753 131.074 245.587 131.084C244.421 131.094 243.398 131.01 242.822 130.874C242.662 130.511 242.571 130.109 242.568 129.687C242.565 129.364 242.614 129.052 242.705 128.76C243.258 128.91 244.334 129.005 245.57 128.995C246.806 128.985 247.88 128.871 248.431 128.713C248.528 129.003 248.581 129.314 248.583 129.637Z" fill="#E8505B"/>
<path d="M257.041 177.644C257.044 178.066 256.96 178.469 256.805 178.835C256.353 179.908 255.295 180.664 254.056 180.674C252.818 180.685 251.748 179.946 251.279 178.881C251.119 178.518 251.028 178.116 251.025 177.694C251.022 177.371 251.071 177.059 251.163 176.767C251.544 175.557 252.671 174.674 254.008 174.663C255.347 174.652 256.488 175.516 256.888 176.72C256.985 177.01 257.038 177.321 257.041 177.644Z" fill="#F49F9F"/>
<path d="M253.967 169.369C253.268 169.375 252.702 169.523 252.704 169.7L252.745 174.923C252.747 175.101 253.314 175.239 254.013 175.234C254.712 175.228 255.278 175.079 255.276 174.902L255.235 169.679C255.233 169.502 254.666 169.363 253.967 169.369Z" fill="#E8505B"/>
<path d="M252.545 179.732L252.551 180.472C252.553 180.665 253.227 180.817 254.058 180.81C254.888 180.803 255.56 180.641 255.558 180.447L255.553 179.707L252.545 179.732Z" fill="#F49F9F"/>
<path d="M257.041 177.644C257.044 178.066 256.96 178.469 256.805 178.835C256.231 178.98 255.209 179.082 254.044 179.091C252.878 179.101 251.855 179.016 251.279 178.881C251.119 178.518 251.028 178.116 251.025 177.694C251.022 177.371 251.071 177.059 251.163 176.767C251.715 176.917 252.791 177.012 254.027 177.002C255.263 176.992 256.337 176.878 256.888 176.72C256.985 177.01 257.038 177.321 257.041 177.644Z" fill="#E8505B"/>
<path d="M247.141 177.617C247.144 178.039 247.06 178.442 246.906 178.808C246.453 179.88 245.395 180.637 244.157 180.647C242.918 180.658 241.849 179.919 241.38 178.854C241.219 178.491 241.129 178.089 241.125 177.667C241.123 177.344 241.171 177.032 241.263 176.74C241.644 175.53 242.771 174.647 244.109 174.636C245.447 174.625 246.588 175.489 246.988 176.693C247.085 176.983 247.138 177.294 247.141 177.617Z" fill="#F49F9F"/>
<path d="M244.067 169.342C243.368 169.347 242.802 169.496 242.804 169.673L242.845 174.896C242.847 175.073 243.414 175.212 244.113 175.207C244.812 175.201 245.378 175.052 245.376 174.875L245.335 169.652C245.333 169.475 244.766 169.336 244.067 169.342Z" fill="#E8505B"/>
<path d="M242.645 179.705L242.651 180.445C242.653 180.638 243.327 180.789 244.158 180.783C244.989 180.776 245.661 180.613 245.659 180.42L245.653 179.68L242.645 179.705Z" fill="#F49F9F"/>
<path d="M247.141 177.617C247.144 178.039 247.06 178.442 246.906 178.808C246.331 178.953 245.31 179.054 244.144 179.064C242.979 179.074 241.956 178.99 241.379 178.854C241.219 178.491 241.129 178.089 241.125 177.667C241.122 177.344 241.171 177.032 241.263 176.74C241.816 176.89 242.891 176.985 244.127 176.975C245.363 176.965 246.438 176.851 246.988 176.693C247.085 176.983 247.138 177.294 247.141 177.617Z" fill="#E8505B"/>
<path d="M209.612 153.028C209.615 153.451 209.531 153.854 209.376 154.22C208.924 155.292 207.866 156.049 206.627 156.059C205.389 156.069 204.32 155.33 203.85 154.265C203.69 153.902 203.599 153.501 203.596 153.078C203.593 152.755 203.642 152.444 203.734 152.152C204.115 150.941 205.242 150.059 206.579 150.047C207.918 150.036 209.058 150.9 209.459 152.104C209.556 152.395 209.609 152.706 209.612 153.028Z" fill="#F49F9F"/>
<path d="M206.538 144.753C205.839 144.759 205.273 144.907 205.275 145.084L205.316 150.308C205.318 150.485 205.885 150.624 206.584 150.618C207.283 150.612 207.849 150.464 207.847 150.287L207.805 145.063C207.804 144.886 207.237 144.747 206.538 144.753Z" fill="#E8505B"/>
<path d="M205.116 155.116L205.122 155.856C205.123 156.05 205.798 156.201 206.628 156.194C207.459 156.187 208.131 156.025 208.13 155.831L208.124 155.091L205.116 155.116Z" fill="#F49F9F"/>
<path d="M209.612 153.028C209.615 153.451 209.531 153.854 209.376 154.22C208.803 154.365 207.78 154.466 206.615 154.476C205.449 154.486 204.427 154.401 203.85 154.265C203.69 153.902 203.599 153.501 203.596 153.078C203.593 152.755 203.642 152.444 203.733 152.152C204.286 152.301 205.362 152.397 206.598 152.387C207.834 152.376 208.908 152.263 209.459 152.104C209.556 152.395 209.609 152.706 209.612 153.028Z" fill="#E8505B"/>
<path d="M219.367 153.028C219.37 153.451 219.286 153.854 219.131 154.22C218.679 155.292 217.621 156.049 216.382 156.059C215.144 156.069 214.075 155.33 213.605 154.265C213.445 153.902 213.354 153.501 213.351 153.078C213.348 152.755 213.397 152.444 213.489 152.152C213.87 150.941 214.997 150.059 216.335 150.047C217.673 150.036 218.814 150.9 219.214 152.104C219.311 152.395 219.364 152.706 219.367 153.028Z" fill="#F49F9F"/>
<path d="M216.293 144.753C215.594 144.759 215.028 144.907 215.03 145.084L215.071 150.308C215.073 150.485 215.64 150.624 216.339 150.618C217.038 150.612 217.603 150.464 217.602 150.287L217.56 145.063C217.559 144.886 216.991 144.747 216.293 144.753Z" fill="#E8505B"/>
<path d="M214.871 155.116L214.877 155.856C214.878 156.05 215.553 156.201 216.383 156.194C217.214 156.187 217.886 156.025 217.884 155.831L217.879 155.091L214.871 155.116Z" fill="#F49F9F"/>
<path d="M219.367 153.028C219.37 153.451 219.286 153.854 219.131 154.22C218.558 154.365 217.536 154.466 216.37 154.476C215.205 154.486 214.182 154.401 213.605 154.265C213.445 153.902 213.354 153.501 213.351 153.078C213.348 152.755 213.397 152.444 213.489 152.152C214.041 152.301 215.117 152.397 216.353 152.387C217.589 152.376 218.663 152.263 219.214 152.104C219.311 152.395 219.364 152.706 219.367 153.028Z" fill="#E8505B"/>
<path d="M229.121 153.028C229.125 153.451 229.041 153.854 228.886 154.22C228.434 155.292 227.376 156.049 226.137 156.059C224.899 156.069 223.829 155.33 223.36 154.265C223.2 153.902 223.109 153.501 223.106 153.078C223.103 152.755 223.152 152.444 223.243 152.152C223.624 150.941 224.752 150.059 226.089 150.047C227.427 150.036 228.568 150.9 228.968 152.104C229.066 152.395 229.119 152.706 229.121 153.028Z" fill="#F49F9F"/>
<path d="M226.047 144.753C225.348 144.759 224.783 144.907 224.784 145.084L224.826 150.308C224.827 150.485 225.395 150.624 226.094 150.618C226.793 150.612 227.358 150.464 227.357 150.287L227.315 145.063C227.314 144.886 226.746 144.747 226.047 144.753Z" fill="#E8505B"/>
<path d="M224.626 155.116L224.632 155.856C224.633 156.05 225.308 156.201 226.138 156.194C226.969 156.187 227.641 156.025 227.639 155.831L227.634 155.091L224.626 155.116Z" fill="#F49F9F"/>
<path d="M229.121 153.028C229.125 153.451 229.041 153.854 228.886 154.22C228.312 154.365 227.29 154.466 226.125 154.476C224.959 154.486 223.936 154.401 223.36 154.265C223.2 153.902 223.109 153.501 223.106 153.078C223.103 152.755 223.152 152.444 223.243 152.152C223.796 152.301 224.872 152.397 226.108 152.387C227.344 152.376 228.418 152.263 228.968 152.104C229.066 152.395 229.119 152.706 229.121 153.028Z" fill="#E8505B"/>
<path d="M238.876 153.028C238.88 153.451 238.795 153.854 238.641 154.22C238.188 155.292 237.13 156.049 235.892 156.059C234.653 156.069 233.584 155.33 233.115 154.265C232.954 153.902 232.864 153.501 232.86 153.078C232.858 152.755 232.907 152.444 232.998 152.152C233.379 150.941 234.506 150.059 235.844 150.047C237.182 150.036 238.323 150.9 238.724 152.104C238.82 152.395 238.874 152.706 238.876 153.028Z" fill="#F49F9F"/>
<path d="M235.802 144.753C235.103 144.759 234.538 144.907 234.539 145.084L234.581 150.308C234.582 150.485 235.15 150.624 235.849 150.618C236.548 150.612 237.113 150.464 237.112 150.287L237.07 145.063C237.069 144.886 236.501 144.747 235.802 144.753Z" fill="#E8505B"/>
<path d="M234.381 155.116L234.387 155.856C234.388 156.05 235.063 156.201 235.893 156.194C236.724 156.187 237.396 156.025 237.394 155.831L237.389 155.091L234.381 155.116Z" fill="#F49F9F"/>
<path d="M238.876 153.028C238.88 153.451 238.795 153.854 238.641 154.22C238.067 154.365 237.045 154.466 235.88 154.476C234.714 154.486 233.691 154.401 233.115 154.265C232.954 153.902 232.864 153.501 232.86 153.078C232.858 152.755 232.907 152.444 232.998 152.152C233.551 152.301 234.627 152.397 235.863 152.387C237.099 152.376 238.173 152.263 238.723 152.104C238.82 152.395 238.874 152.706 238.876 153.028Z" fill="#E8505B"/>
<path d="M263.259 156.233H180.409V157.243H263.259V156.233Z" fill="#1B1B1B"/>
<path d="M190.102 153.028C190.105 153.451 190.021 153.854 189.867 154.22C189.414 155.292 188.356 156.049 187.118 156.059C185.879 156.069 184.81 155.33 184.341 154.265C184.18 153.902 184.09 153.501 184.086 153.078C184.083 152.755 184.132 152.444 184.224 152.152C184.605 150.941 185.732 150.059 187.07 150.047C188.408 150.036 189.549 150.9 189.949 152.104C190.046 152.395 190.099 152.706 190.102 153.028Z" fill="#F49F9F"/>
<path d="M187.028 144.753C186.329 144.759 185.764 144.907 185.765 145.084L185.806 150.308C185.808 150.485 186.376 150.624 187.075 150.618C187.773 150.612 188.339 150.464 188.338 150.287L188.296 145.063C188.295 144.886 187.727 144.747 187.028 144.753Z" fill="#E8505B"/>
<path d="M185.606 155.116L185.612 155.856C185.614 156.05 186.288 156.201 187.119 156.194C187.949 156.187 188.621 156.025 188.62 155.831L188.614 155.091L185.606 155.116Z" fill="#F49F9F"/>
<path d="M190.102 153.028C190.105 153.451 190.021 153.854 189.867 154.22C189.293 154.365 188.271 154.466 187.105 154.476C185.94 154.486 184.917 154.401 184.34 154.265C184.18 153.902 184.09 153.501 184.086 153.078C184.083 152.755 184.132 152.444 184.224 152.152C184.777 152.301 185.853 152.397 187.088 152.387C188.325 152.376 189.399 152.263 189.949 152.104C190.046 152.395 190.099 152.706 190.102 153.028Z" fill="#E8505B"/>
<path d="M199.857 153.028C199.86 153.451 199.776 153.854 199.622 154.22C199.169 155.292 198.111 156.049 196.873 156.059C195.634 156.069 194.565 155.33 194.095 154.265C193.935 153.902 193.845 153.501 193.841 153.078C193.838 152.755 193.887 152.444 193.979 152.152C194.36 150.941 195.487 150.059 196.825 150.047C198.163 150.036 199.304 150.9 199.704 152.104C199.801 152.395 199.854 152.706 199.857 153.028Z" fill="#F49F9F"/>
<path d="M196.783 144.753C196.084 144.759 195.518 144.907 195.52 145.084L195.561 150.308C195.563 150.485 196.13 150.624 196.829 150.618C197.528 150.612 198.094 150.464 198.092 150.287L198.051 145.063C198.05 144.886 197.482 144.747 196.783 144.753Z" fill="#E8505B"/>
<path d="M195.361 155.116L195.367 155.856C195.369 156.05 196.043 156.201 196.874 156.194C197.704 156.187 198.376 156.025 198.375 155.831L198.369 155.091L195.361 155.116Z" fill="#F49F9F"/>
<path d="M199.857 153.028C199.86 153.451 199.776 153.854 199.622 154.22C199.048 154.365 198.026 154.466 196.86 154.476C195.695 154.486 194.672 154.401 194.095 154.265C193.935 153.902 193.845 153.501 193.841 153.078C193.838 152.755 193.887 152.444 193.979 152.152C194.532 152.301 195.607 152.397 196.843 152.387C198.08 152.376 199.154 152.263 199.704 152.104C199.801 152.395 199.854 152.706 199.857 153.028Z" fill="#E8505B"/>
<path d="M258.312 153.187C258.316 153.609 258.232 154.012 258.077 154.377C257.625 155.45 256.567 156.207 255.328 156.217C254.09 156.227 253.02 155.488 252.551 154.423C252.39 154.06 252.3 153.659 252.297 153.236C252.294 152.913 252.343 152.602 252.434 152.31C252.815 151.099 253.942 150.217 255.28 150.205C256.618 150.194 257.76 151.058 258.159 152.262C258.257 152.553 258.31 152.863 258.312 153.187Z" fill="#F49F9F"/>
<path d="M255.238 144.911C254.539 144.917 253.974 145.065 253.975 145.242L254.017 150.466C254.018 150.643 254.586 150.782 255.285 150.776C255.984 150.77 256.549 150.622 256.548 150.445L256.506 145.221C256.505 145.044 255.937 144.905 255.238 144.911Z" fill="#E8505B"/>
<path d="M253.817 155.274L253.823 156.014C253.824 156.208 254.499 156.359 255.329 156.352C256.16 156.345 256.832 156.183 256.83 155.989L256.824 155.249L253.817 155.274Z" fill="#F49F9F"/>
<path d="M258.312 153.187C258.316 153.609 258.232 154.012 258.077 154.377C257.503 154.523 256.481 154.624 255.316 154.634C254.15 154.643 253.127 154.559 252.551 154.423C252.39 154.06 252.3 153.659 252.297 153.236C252.294 152.913 252.343 152.602 252.434 152.31C252.987 152.459 254.063 152.555 255.299 152.545C256.535 152.534 257.609 152.421 258.159 152.262C258.257 152.553 258.31 152.863 258.312 153.187Z" fill="#E8505B"/>
<path d="M248.413 153.159C248.416 153.582 248.332 153.984 248.178 154.35C247.725 155.423 246.667 156.18 245.429 156.19C244.19 156.2 243.121 155.461 242.651 154.396C242.491 154.033 242.401 153.632 242.397 153.209C242.394 152.886 242.443 152.575 242.535 152.282C242.916 151.072 244.043 150.189 245.381 150.178C246.719 150.167 247.86 151.031 248.26 152.235C248.357 152.526 248.41 152.836 248.413 153.159Z" fill="#F49F9F"/>
<path d="M245.338 144.884C244.639 144.89 244.074 145.038 244.076 145.215L244.117 150.439C244.119 150.616 244.686 150.755 245.385 150.749C246.084 150.743 246.649 150.595 246.648 150.418L246.606 145.194C246.605 145.017 246.037 144.878 245.338 144.884Z" fill="#E8505B"/>
<path d="M243.917 155.247L243.923 155.987C243.924 156.18 244.599 156.332 245.429 156.325C246.26 156.318 246.932 156.156 246.931 155.962L246.925 155.222L243.917 155.247Z" fill="#F49F9F"/>
<path d="M248.413 153.159C248.416 153.582 248.332 153.984 248.178 154.35C247.603 154.495 246.582 154.597 245.416 154.606C244.25 154.616 243.228 154.532 242.651 154.396C242.491 154.033 242.4 153.632 242.397 153.209C242.394 152.886 242.443 152.575 242.535 152.282C243.087 152.432 244.163 152.528 245.399 152.518C246.635 152.507 247.71 152.393 248.26 152.235C248.357 152.526 248.41 152.836 248.413 153.159Z" fill="#E8505B"/>
<path d="M262.728 132.671H179.879V133.681H262.728V132.671Z" fill="#1B1B1B"/>
<path d="M217.8 195.682V201.485L227.765 191.829L225.799 187.911L217.8 195.682Z" fill="#03A6A6"/>
<path d="M72.7303 262.544C63.9845 261.28 59.0317 260.768 55.6389 252.092C52.2459 243.415 48.9999 241.992 48.9999 241.992C48.9999 241.992 63.4026 237.689 68.8172 246.328C74.2319 254.966 72.7303 262.544 72.7303 262.544Z" fill="#1F9DA3"/>
<path d="M65.8089 251.733C65.7466 251.733 65.6851 251.704 65.6447 251.651C62.1375 247.004 56.9123 245.102 56.8599 245.083C56.753 245.045 56.6968 244.927 56.735 244.82C56.7734 244.713 56.8909 244.657 56.9979 244.696C57.0514 244.714 62.3895 246.655 65.9732 251.403C66.0415 251.494 66.0236 251.622 65.9328 251.691C65.8958 251.719 65.8522 251.733 65.8089 251.733Z" fill="#037F8C"/>
<path d="M68.4131 238.828C68.2719 236.497 67.6561 231.496 72.4463 227.04C75.4831 224.215 76.6764 219.476 76.6764 219.476C76.6764 219.476 84.7276 232.119 84.3039 237.345C83.8802 242.571 75.97 247.586 75.97 247.586L68.4131 238.828Z" fill="#1F9DA3"/>
<path d="M77.3797 241.238C77.3652 241.238 77.3507 241.237 77.3361 241.234C77.2251 241.21 77.1544 241.1 77.1781 240.989C78.5638 234.547 77.3668 225.187 77.3547 225.093C77.3399 224.981 77.4193 224.877 77.5321 224.863C77.6449 224.848 77.7482 224.927 77.7629 225.04C77.7751 225.134 78.9813 234.563 77.5806 241.076C77.5599 241.172 77.4746 241.238 77.3797 241.238Z" fill="#037F8C"/>
<path d="M75.765 242.557C78.0956 229.915 87.9022 230.219 89.9829 230.959C89.0218 233.358 88.8826 240.341 89.3458 241.372C89.809 242.402 80.2872 246.3 80.2872 246.3L75.765 242.557Z" fill="#037F8C"/>
<path d="M80.4399 260.662C80.4399 260.662 73.3057 247.836 83.9599 240.862C94.614 233.888 95.5427 228.714 95.5427 228.714C95.5427 228.714 106.204 256.401 80.4399 260.662Z" fill="#1F9DA3"/>
<path d="M80.9675 258.977C80.8884 258.977 80.8098 258.943 80.7558 258.877C80.659 258.76 80.6756 258.587 80.7922 258.491C80.9002 258.402 91.6082 249.425 94.5125 236.488C94.5457 236.34 94.6928 236.247 94.8405 236.28C94.9885 236.313 95.0811 236.46 95.0481 236.608C93.5075 243.469 89.8096 249.168 86.9788 252.74C83.913 256.608 81.1692 258.891 81.1419 258.914C81.0907 258.956 81.0288 258.977 80.9675 258.977Z" fill="#037F8C"/>
<path d="M71.1416 260.082C62.6181 253.301 56.807 241.291 64.5557 228.313C67.2674 233.543 71.1561 238.232 76.9532 241.291C83.9266 244.972 80.4397 260.662 80.4397 260.662L71.1416 260.082Z" fill="#037F8C"/>
<path d="M76.6616 260.66C76.5869 260.66 76.5113 260.636 76.4481 260.585C69.5597 255.093 63.9432 238.875 64.0309 235.283C64.0357 235.094 64.1913 234.944 64.3821 234.949C64.5717 234.953 64.7213 235.111 64.7168 235.3C64.6765 236.942 65.922 241.622 68.3095 247.061C69.8616 250.599 73.0389 256.989 76.8758 260.049C77.024 260.167 77.0484 260.383 76.9301 260.531C76.8624 260.616 76.7625 260.66 76.6616 260.66Z" fill="#03A6A6"/>
<path d="M79.0838 260.137C81.2143 254.713 92.4499 243.035 104.266 245.359C101.554 247.49 99.639 250.467 97.1671 253.716C95.2575 256.225 94.5763 258.226 91.0917 259.929C86.0575 260.856 79.0838 260.137 79.0838 260.137Z" fill="#037F8C"/>
<path d="M84.1062 260.232C84.0633 260.232 84.0197 260.222 83.9788 260.201C83.8445 260.13 83.7932 259.964 83.8636 259.83C84.0525 259.471 88.5644 251.006 94.8809 249.111C95.0259 249.068 95.1789 249.15 95.2225 249.295C95.2659 249.44 95.1837 249.593 95.0384 249.637C88.9441 251.465 84.3944 260 84.3495 260.086C84.3002 260.179 84.2051 260.232 84.1062 260.232Z" fill="#03A6A6"/>
<path d="M87.2883 280.521H66.2581L62.2311 260.088L91.0916 259.929L87.2883 280.521Z" fill="#E8505B"/>
<path d="M63.3169 279.406C63.3169 280.954 69.3177 282.208 76.7204 282.208C84.1227 282.208 90.1235 280.954 90.1235 279.406H63.3169Z" fill="#A6032F"/>
<path d="M117.754 116.914C125.725 116.914 132.187 110.441 132.187 102.457C132.187 94.4725 125.725 88 117.754 88C109.783 88 103.321 94.4725 103.321 102.457C103.321 110.441 109.783 116.914 117.754 116.914Z" fill="#1B1B1B"/>
<path d="M117.754 114.77C124.543 114.77 130.047 109.257 130.047 102.457C130.047 95.6566 124.543 90.1439 117.754 90.1439C110.965 90.1439 105.461 95.6566 105.461 102.457C105.461 109.257 110.965 114.77 117.754 114.77Z" fill="#E8505B"/>
<path d="M117.754 103.064C117.596 103.064 117.441 103.002 117.325 102.886L113.099 98.652C112.862 98.4149 112.862 98.0306 113.099 97.7935C113.335 97.5563 113.719 97.5563 113.955 97.7935L117.148 100.991V93.5303C117.148 93.1952 117.419 92.9233 117.754 92.9233C118.089 92.9233 118.36 93.1951 118.36 93.5303V102.457C118.36 102.702 118.212 102.924 117.986 103.017C117.911 103.049 117.832 103.064 117.754 103.064Z" fill="#1B1B1B"/>
<path d="M156.194 215.654L194.68 185.309H272.573L234.563 215.654" fill="#037F8C"/>
<path d="M280.791 295.503C278.34 294.904 275.131 294.541 271.619 294.541C268.107 294.541 264.898 294.904 262.446 295.503H257.673V298.44C257.673 300.593 263.917 302.338 271.619 302.338C279.321 302.338 285.564 300.593 285.564 298.44V295.503H280.791Z" fill="#258B8D"/>
<path d="M271.619 299.402C279.321 299.402 285.564 297.656 285.564 295.503C285.564 293.35 279.321 291.604 271.619 291.604C263.917 291.604 257.673 293.35 257.673 295.503C257.673 297.656 263.917 299.402 271.619 299.402Z" fill="#03A6A6"/>
<path d="M271.619 296.677C270.403 296.677 269.417 295.691 269.417 294.475V241.232C269.417 240.015 270.403 239.029 271.619 239.029C272.835 239.029 273.821 240.015 273.821 241.232V294.475C273.821 295.691 272.835 296.677 271.619 296.677Z" fill="#258B8D"/>
<path d="M295.311 245.13H247.926C247.926 240.824 251.417 237.333 255.724 237.333H287.514C291.82 237.333 295.311 240.824 295.311 245.13Z" fill="#258B8D"/>
<path d="M140.957 295.472C138.505 294.873 135.296 294.51 131.784 294.51C128.272 294.51 125.063 294.873 122.611 295.472H117.838V298.409C117.838 300.562 124.082 302.308 131.784 302.308C139.486 302.308 145.729 300.562 145.729 298.409V295.472H140.957Z" fill="#258B8D"/>
<path d="M131.784 299.371C139.486 299.371 145.73 297.625 145.73 295.472C145.73 293.319 139.486 291.574 131.784 291.574C124.082 291.574 117.838 293.319 117.838 295.472C117.838 297.625 124.082 299.371 131.784 299.371Z" fill="#03A6A6"/>
<path d="M131.784 296.647C130.567 296.647 129.581 295.661 129.581 294.444V241.201C129.581 239.985 130.567 238.999 131.784 238.999C133 238.999 133.986 239.985 133.986 241.201V294.444C133.986 295.661 133 296.647 131.784 296.647Z" fill="#258B8D"/>
<path d="M155.476 245.1H108.091C108.091 240.793 111.582 237.302 115.889 237.302H147.679C151.985 237.302 155.476 240.793 155.476 245.1Z" fill="#258B8D"/>
<path d="M231.641 298.195L248.626 292.571C248.295 291.588 247.167 289.633 246.082 286.165L243.084 271.433L232.951 274.56L238.686 286.612C239.366 288.042 238.935 289.75 237.662 290.691C234.923 292.921 231.177 293.526 229.961 296.638C229.705 297.635 230.664 298.519 231.641 298.195Z" fill="#F99370"/>
<path d="M248.6 290.764C248.722 291.362 248.748 291.972 248.626 292.572L231.476 298.25C230.642 298.526 229.766 297.904 229.783 297.025C229.825 294.97 231.202 291.551 238.971 288.52C238.971 288.52 241.926 288.431 246.082 286.165C246.082 286.165 248.114 288.339 248.6 290.764Z" fill="#333333"/>
<path d="M234.63 294.748C234.494 294.792 234.339 294.752 234.241 294.636C233.099 293.292 231.808 293.193 231.754 293.189C231.283 293.166 231.323 292.424 231.796 292.458C231.863 292.462 233.443 292.567 234.798 294.162C234.968 294.353 234.874 294.675 234.63 294.748Z" fill="#F4EEEA"/>
<path d="M237.223 293.528C237.075 293.575 236.908 293.524 236.814 293.391C235.663 291.778 233.825 291.466 233.807 291.463C232.421 290.12 236.047 290.849 237.409 292.966C237.555 293.162 237.455 293.457 237.223 293.528Z" fill="#F4EEEA"/>
<path d="M240.17 292.132C240.027 292.178 239.865 292.132 239.768 292.006C238.503 290.355 236.668 289.835 236.65 289.83C236.191 289.711 236.386 288.992 236.842 289.123C236.927 289.146 238.928 289.706 240.349 291.56C240.505 291.755 240.407 292.062 240.17 292.132Z" fill="#F4EEEA"/>
<path d="M229.783 296.994L248.6 290.764C248.722 291.362 248.748 291.972 248.626 292.572L231.476 298.25C230.63 298.531 229.744 297.884 229.783 296.994Z" fill="#1B1B1B"/>
<path d="M245.866 302.307L262.929 296.924C262.582 295.841 261.672 294.481 260.477 290.483L257.139 275.413L247.511 278.693L252.05 290.671C252.71 292.11 253.279 293.966 251.994 294.889C249.223 297.08 245.469 297.632 244.209 300.727C243.939 301.72 244.885 302.616 245.866 302.307Z" fill="#F99370"/>
<path d="M262.93 295.116C263.042 295.716 263.06 296.327 262.93 296.924L245.7 302.36C244.863 302.624 243.996 301.99 244.025 301.111C244.097 299.057 245.522 295.657 253.333 292.736C253.333 292.736 256.288 292.689 260.477 290.483C260.477 290.483 262.478 292.685 262.93 295.116Z" fill="#333333"/>
<path d="M248.905 298.903C248.768 298.944 248.613 298.903 248.516 298.785C247.394 297.425 246.104 297.308 246.05 297.304C245.58 297.274 245.63 296.532 246.103 296.573C246.169 296.578 247.749 296.706 249.08 298.319C249.249 298.513 249.15 298.833 248.905 298.903Z" fill="#F4EEEA"/>
<path d="M251.514 297.719C251.366 297.764 251.2 297.711 251.107 297.577C249.98 295.948 248.146 295.609 248.127 295.606C246.761 294.244 250.376 295.024 251.709 297.16C251.851 297.358 251.747 297.652 251.514 297.719Z" fill="#F4EEEA"/>
<path d="M254.481 296.366C254.337 296.409 254.176 296.361 254.081 296.234C252.839 294.565 251.012 294.019 250.993 294.013C250.537 293.888 250.741 293.172 251.196 293.309C251.28 293.334 253.273 293.922 254.668 295.796C254.821 295.993 254.719 296.298 254.481 296.366Z" fill="#F4EEEA"/>
<path d="M244.026 301.08L262.93 295.116C263.042 295.715 263.06 296.327 262.93 296.924L245.7 302.359C244.851 302.628 243.975 301.97 244.026 301.08Z" fill="#1B1B1B"/>
<path d="M277.684 239.378C269.255 244.35 266.579 240.99 260.932 250.786C257.916 256.414 260.633 268.231 262.499 274.718C263.282 277.435 263.914 279.217 263.914 279.217C242.771 287.652 226.851 279.24 226.851 279.24C226.851 279.24 226.314 277.809 225.558 275.412C223.289 268.217 219.047 252.322 221.463 240.409C224.678 224.551 245.63 215.337 245.63 215.337C250.154 213.177 256.666 215.542 265.333 216.553C270.588 215.274 283.388 212.161 283.388 212.161C283.388 212.161 291.18 230.805 277.684 239.378Z" fill="#1B1B1B"/>
<path d="M241.691 146.676C241.691 146.676 244.374 141.546 250.848 141.902C263.745 142.612 269.518 158.196 271.093 163.085C273.014 169.052 275.543 181.223 274.219 184.974C272.42 190.073 253.258 191.219 245.151 188.905C237.044 186.592 239.161 164.17 237.995 160.607C236.828 157.043 241.691 146.676 241.691 146.676Z" fill="#1B1B1B"/>
<path d="M251.346 190.281C251.025 197.755 247.501 206.782 246.91 208.404C233.749 220.674 211.908 207.52 210.76 204.294C210.466 203.47 210.795 199.93 211.681 199.501C214.968 199.141 221.419 201.569 227.514 201.53C232.734 201.757 237.814 200.642 238.724 195.551C239.332 192.153 251.779 181.276 251.346 190.281Z" fill="#E8505B"/>
<path d="M247.116 173.593L245.856 186.092L240.753 186.474L238.215 186.663C238.171 186.027 238.156 185.42 238.166 184.843C238.324 174.769 246.077 173.593 246.077 173.593H247.116V173.593Z" fill="#E8505B"/>
<path d="M247.58 173.125C247.577 173.127 247.572 173.127 247.569 173.128C247.574 173.101 247.577 173.099 247.58 173.125Z" fill="#CE4ABF"/>
<path d="M242.202 179.657L240.753 186.474L238.215 186.663C238.171 186.027 238.155 185.42 238.166 184.843C239.067 182.472 242.202 179.657 242.202 179.657Z" fill="#A6032F"/>
<path d="M246.768 171.042C247.001 171.748 247.29 172.497 247.58 173.123C248.129 175.749 254.936 173.78 254.416 170.947C253.898 169.345 251.532 161.849 251.966 160.989C251.773 156.291 244.25 156.774 244.686 161.478C244.842 163.875 245.846 168.256 246.768 171.042Z" fill="#F99370"/>
<path d="M246.768 171.042C251.544 170.939 253.655 168.512 253.655 168.512L253.363 167.538C252.936 166.168 252.934 166.127 252.616 164.92L245.567 166.659C245.889 168.093 246.294 169.638 246.768 171.042Z" fill="#E57D61"/>
<path d="M242.772 146.298C233.284 146.312 233.595 161.254 240.61 165.913L242.772 146.298Z" fill="#1B1B1B"/>
<path d="M255.06 155.36C255.903 158.528 256.392 162.305 254.929 165.302L254.926 165.304C250.863 173.912 234.161 170.857 237.374 160.655C238.526 157.972 237.51 154.58 238.268 152.083C241.243 142.523 253.285 147.115 255.06 155.36Z" fill="#F99370"/>
<path d="M242.965 158.57C242.466 158.177 243.094 157.402 243.583 157.809C244.082 158.202 243.454 158.978 242.965 158.57Z" fill="#C16256"/>
<path d="M238.922 159.617C238.422 159.224 239.051 158.448 239.539 158.855C240.038 159.248 239.41 160.024 238.922 159.617Z" fill="#C16256"/>
<path d="M242.081 162.873C241.257 163.229 239.737 163.245 240.448 162.055C241.088 161.221 240.928 159.191 240.926 159.17C241.506 158.12 241.48 161.405 240.742 162.281C240.26 162.983 241.817 162.76 242.298 162.304C242.375 162.236 242.492 162.243 242.56 162.319C242.744 162.601 242.282 162.756 242.081 162.873Z" fill="#C16256"/>
<path d="M255.06 155.36C255.903 158.528 256.392 162.305 254.929 165.302L254.926 165.304C255.503 163.12 254.706 159.166 254.706 159.166L253.381 157.84C241.639 159.107 238.892 150.525 238.892 150.525C242.878 142.543 253.537 148.003 255.06 155.36Z" fill="#E57D61"/>
<path d="M239.604 149.251C239.604 149.251 242.406 157.748 253.079 156.986L255.564 153.696C255.965 145.954 246.01 139.287 239.604 149.251Z" fill="#1B1B1B"/>
<path d="M257.604 156.015C258.376 159.699 253.887 160.663 253.079 156.986C252.308 153.303 256.797 152.339 257.604 156.015Z" fill="#F99370"/>
<path d="M256.848 157.186C256.737 157.237 256.601 157.161 256.588 157.039C256.431 154.966 255.303 154.569 254.32 155.603C254.155 155.776 253.884 155.511 254.056 155.342C255.159 153.98 257.204 154.852 256.848 157.186Z" fill="#C16256"/>
<path d="M255.161 157.654C254.384 157.92 255.43 154.724 256.391 155.194C256.439 155.285 256.404 155.397 256.314 155.445C255.06 156.167 255.453 157.472 255.161 157.654Z" fill="#C16256"/>
<path d="M256.444 158.391C256.672 158.881 255.897 159.227 255.684 158.73C255.457 158.24 256.232 157.895 256.444 158.391Z" fill="#F4D4BE"/>
<path d="M239.806 156.678C239.662 156.733 238.708 157.135 238.207 158.257C238.171 158.339 238.207 158.434 238.289 158.471C238.371 158.507 238.467 158.471 238.503 158.389C238.975 157.33 239.922 156.98 239.931 156.977C240.018 156.951 240.059 156.854 240.029 156.77C240 156.686 239.907 156.642 239.823 156.672C239.821 156.673 239.815 156.675 239.806 156.678Z" fill="#C16256"/>
<path d="M244.17 156.746C244.189 156.736 244.206 156.722 244.221 156.704C244.277 156.635 244.267 156.533 244.198 156.476C243.104 155.584 241.874 156.205 241.822 156.232C241.743 156.274 241.712 156.371 241.753 156.451C241.794 156.53 241.892 156.561 241.971 156.52C242.016 156.497 243.067 155.972 243.993 156.727C244.045 156.769 244.115 156.774 244.17 156.746Z" fill="#C16256"/>
<path d="M283.388 212.161C268.674 220.755 248.701 217.764 245.63 215.337C245.63 215.337 245.63 215.337 245.527 213.158C245.523 213.089 245.511 213.018 245.503 212.946C245.469 212.651 245.429 212.35 245.382 212.048L245.378 212.018C245.336 211.741 245.288 211.459 245.233 211.177C245.231 211.168 245.23 211.161 245.228 211.153C245.176 210.878 245.117 210.602 245.051 210.325C244.879 209.582 244.66 208.833 244.385 208.086C244.204 207.59 243.999 207.094 243.766 206.605C242.755 204.479 240.723 202.029 239.029 199.537C238.703 199.059 238.391 198.579 238.101 198.101L237.731 197.283L237.666 197.139L236.966 195.586L236.464 194.473C236.229 193.531 236.185 192.611 236.414 191.731C236.929 189.748 237.654 187.846 238.488 186.066C238.941 185.096 239.427 184.162 239.931 183.273C242.237 179.196 244.894 176.018 246.392 174.37C247.059 173.637 247.494 173.207 247.568 173.135C247.574 173.129 247.576 173.126 247.578 173.125C247.579 173.123 247.579 173.123 247.579 173.123C247.926 174.356 252.124 172.903 254.416 170.947C254.416 170.947 255.094 170.869 256.112 170.869C257.983 170.867 260.999 171.126 263.02 172.603C267.703 176.023 271.809 182.587 275.106 189.726C275.175 189.873 275.241 190.02 275.31 190.167C275.473 190.528 275.636 190.891 275.796 191.255C279.744 200.194 282.422 206.909 283.388 212.161Z" fill="#E8505B"/>
<path d="M273.882 191.61C274.183 195.066 274.845 203.62 265.166 210.12C257.061 215.564 245.527 213.159 245.527 213.159C245.52 213.089 245.511 213.019 245.503 212.946C245.469 212.651 245.429 212.351 245.382 212.048L245.378 212.018C245.336 211.741 245.288 211.46 245.233 211.177C245.231 211.168 245.23 211.161 245.228 211.153C245.176 210.878 245.117 210.603 245.051 210.326L270.8 188.451C270.8 188.451 273.722 191.246 273.882 191.61Z" fill="#A6032F"/>
<path d="M262.499 188.415L256.691 198.431L238.101 198.101L236.72 195.04C241.429 195.172 248.444 194.235 252.429 193.004C259.825 190.722 258.853 181.276 258.853 181.276L262.499 188.415Z" fill="#A6032F"/>
<path d="M275.309 190.167C275.001 195.538 272.705 201.122 268.104 205.645C261.335 212.297 253.155 213.419 245.382 212.048C245.049 211.989 244.716 211.925 244.385 211.857C237.972 210.55 231.891 207.616 227.18 204.792C226.781 204.553 226.421 204.312 226.1 204.076C224.85 203.163 224.186 202.343 224.134 202.086C223.76 200.688 223.738 195.623 226.673 195.544C227.278 195.528 227.869 195.463 228.447 195.481C231.598 195.586 234.427 195.62 236.966 195.586C237.347 195.582 237.722 195.575 238.089 195.566C241.544 195.491 244.434 195.283 246.849 194.951C258.676 193.326 259.17 188.727 258.922 182.149C258.774 178.219 256.365 173.954 255.131 172.015C254.703 171.34 254.416 170.947 254.416 170.947C255.023 170.85 255.618 170.78 256.201 170.732C268.72 169.705 275.923 179.512 275.309 190.167Z" fill="#E8505B"/>
<path d="M224.074 201.813L221.455 200.257L223.498 195.527L225.349 196.031L224.074 201.813Z" fill="#F99370"/>
<path d="M243.055 164.985C242.557 164.722 242.425 163.992 242.759 163.358C242.917 163.058 243.156 162.822 243.432 162.692C243.723 162.556 244.02 162.553 244.269 162.684C244.767 162.947 244.899 163.677 244.565 164.311C244.406 164.611 244.167 164.847 243.892 164.977C243.817 165.012 243.741 165.038 243.666 165.056C243.451 165.106 243.24 165.082 243.055 164.985ZM243.57 162.986C243.357 163.085 243.171 163.271 243.046 163.509C242.794 163.986 242.866 164.519 243.206 164.698C243.363 164.781 243.558 164.776 243.754 164.683C243.967 164.584 244.153 164.398 244.278 164.16C244.53 163.683 244.458 163.15 244.118 162.971C244.004 162.911 243.87 162.897 243.73 162.93C243.677 162.942 243.623 162.961 243.57 162.986Z" fill="#C16256"/>
<path d="M214.022 183.657L219.037 201.142C219.372 202.311 218.698 203.528 217.531 203.863C217.284 203.933 217.033 203.959 216.79 203.943C215.886 203.89 215.074 203.275 214.81 202.355L209.794 184.869C209.531 183.948 209.893 182.997 210.631 182.472C210.829 182.33 211.055 182.219 211.302 182.148C211.885 181.981 212.483 182.066 212.975 182.339C213.465 182.612 213.854 183.074 214.022 183.657Z" fill="#CC3E52"/>
<path d="M212.61 184.061L217.626 201.547C217.89 202.467 217.527 203.419 216.79 203.943C215.886 203.89 215.074 203.275 214.81 202.354L209.794 184.869C209.531 183.948 209.893 182.997 210.631 182.472C210.961 182.492 211.28 182.587 211.564 182.744C212.054 183.017 212.443 183.478 212.61 184.061Z" fill="#FD7583"/>
<path d="M216.07 190.722L216.72 192.99C214.802 192.826 211.508 190.768 211.508 190.768C208.115 191.198 213.604 193.571 214.232 194.228C214.227 194.239 214.222 194.249 214.216 194.26C214.216 194.26 214.463 194.475 212.243 193.33C208.451 193.718 212.87 195.752 213.697 196.212C213.696 196.218 213.696 196.224 213.695 196.23L213.039 196.108C209.254 196.838 212.868 198.305 213.81 198.475C213.812 198.484 213.813 198.493 213.815 198.502C213.81 198.475 213.399 198.684 213.399 198.684C211.487 199.495 213.653 200.673 214.533 200.735C215.119 201.082 219.015 201.646 223.263 201.332C224.655 201.229 225.089 197.216 224.332 196.073C223.622 195.001 222.731 194.525 221.738 193.548C221.231 193.048 217.913 191.046 216.07 190.722Z" fill="#F99370"/>
<path d="M211.584 198.788C211.584 198.788 207.542 196.431 202.588 199.866C200.2 201.522 199.691 202.102 199.691 202.102C199.691 202.102 203.441 205.428 210.662 203.581C210.662 203.581 213.103 200.438 211.584 198.788Z" fill="#E57D61"/>
<path d="M256.201 170.732C256.172 170.777 256.143 170.824 256.112 170.869C255.854 171.258 255.519 171.643 255.131 172.015C253.346 173.728 250.438 175.149 248.578 175.245C248.146 175.268 247.79 175.224 247.494 175.139C246.937 174.978 246.597 174.67 246.392 174.37C246.118 173.974 246.077 173.593 246.077 173.593C246.547 173.412 247.045 173.256 247.569 173.127C247.569 173.129 247.569 173.132 247.568 173.135C247.573 173.129 247.576 173.127 247.577 173.125C247.579 173.124 247.579 173.124 247.579 173.124C247.925 174.356 252.123 172.903 254.415 170.947C255.022 170.85 255.618 170.78 256.201 170.732Z" fill="#A6032F"/>
<path d="M202.478 197.854C202.164 198.254 202.623 198.694 203.46 198.579C204.296 198.463 207.397 198.246 207.397 198.246C207.397 198.246 206.444 197.25 204.334 197.188C203.434 197.161 202.478 197.854 202.478 197.854Z" fill="#E57D61"/>
<path d="M263.914 279.217C242.771 287.652 226.851 279.24 226.851 279.24C226.851 279.24 226.313 277.809 225.558 275.412C225.558 275.412 244.906 280.57 262.499 274.718C263.282 277.435 263.914 279.217 263.914 279.217Z" fill="#730217"/>
<path d="M194.63 197.94C194.63 197.94 204.611 195.171 208.369 201.8C208.869 202.682 208.229 203.778 207.216 203.789L196.056 203.913L194.63 197.94Z" fill="#F99370"/>
<path d="M143.066 190.39C161.726 209.777 173.245 211.765 197.989 203.262C202.248 201.581 203.391 197.221 196.986 197.757C190.941 198.263 183.74 198.558 177.595 198.634C168.202 197.759 160.654 187.93 155.508 180.688C149.125 172.579 136.759 182.229 143.066 190.39Z" fill="#F99370"/>
<path d="M206.876 200.648C206.836 200.651 206.794 200.642 206.755 200.621C204.113 199.182 200.772 199.076 200.739 199.075C200.618 199.071 200.522 198.97 200.525 198.849C200.528 198.727 200.631 198.629 200.751 198.634C200.892 198.638 204.229 198.744 206.966 200.235C207.073 200.293 207.112 200.427 207.054 200.533C207.017 200.602 206.949 200.642 206.876 200.648Z" fill="#E57D61"/>
<path d="M208.315 202.465C208.282 202.467 208.248 202.462 208.216 202.449C204.827 201.063 201.129 201.538 201.092 201.543C200.971 201.559 200.86 201.475 200.844 201.354C200.828 201.234 200.912 201.123 201.033 201.107C201.189 201.086 204.882 200.61 208.382 202.042C208.495 202.088 208.549 202.216 208.503 202.329C208.471 202.409 208.396 202.459 208.315 202.465Z" fill="#E57D61"/>
<path d="M185.457 300.92L168.147 300.73C168.192 297.963 168.929 292.377 168.38 289.22C168.38 289.22 176.109 288.301 176.109 288.301C175.901 289.818 174.508 295.014 177.701 295.777C181.025 296.57 184.513 296.483 186.548 298.992C187.077 299.835 186.452 300.931 185.457 300.92Z" fill="#F99370"/>
<path d="M167.64 299.057C167.704 299.643 167.859 300.214 168.147 300.73L185.625 300.922C186.475 300.931 187.099 300.101 186.826 299.296C186.183 297.416 183.981 294.676 175.93 294.166C175.93 294.166 172.964 294.895 168.467 294.03C168.467 294.03 167.376 296.681 167.64 299.057Z" fill="#E8505B"/>
<path d="M181.688 298.623C181.826 298.623 181.958 298.541 182.014 298.405C182.672 296.832 183.833 296.361 183.882 296.342C184.308 296.183 184.054 295.511 183.628 295.681C183.568 295.704 182.141 296.266 181.361 298.132C181.26 298.359 181.442 298.628 181.688 298.623Z" fill="#EFEAE8"/>
<path d="M178.94 298.26C179.09 298.26 179.228 298.165 179.277 298.014C179.863 296.191 181.466 295.363 181.482 295.354C181.894 295.154 181.571 294.509 181.163 294.723C181.086 294.761 179.278 295.695 178.603 297.798C178.526 298.021 178.705 298.264 178.94 298.26Z" fill="#EFEAE8"/>
<path d="M175.813 297.841C175.958 297.841 176.094 297.751 176.146 297.607C176.828 295.714 178.366 294.696 178.382 294.686C178.769 294.442 178.379 293.836 177.997 294.091C177.926 294.137 176.245 295.241 175.48 297.367C175.394 297.592 175.574 297.845 175.813 297.841Z" fill="#EFEAE8"/>
<path d="M186.816 299.268L167.64 299.057C167.704 299.643 167.859 300.213 168.147 300.729L185.625 300.921C186.486 300.932 187.113 300.076 186.816 299.268Z" fill="#A6032F"/>
<path d="M195.317 204.155C195.317 204.155 194.435 204.646 192.84 205.312C188.568 207.096 179.174 210.14 167.872 208.394C162.958 207.636 158.849 206.111 155.525 204.383C153.347 203.25 151.506 202.029 150 200.878C146.543 198.238 144.841 195.965 144.841 195.965L144.519 171.198C144.519 171.198 150.157 171.889 155.477 177.624C160.797 183.36 167.861 193.278 174.496 195.413C179.341 196.974 187.483 197.628 191.523 197.867C193.016 197.957 193.95 197.988 193.95 197.988C193.95 197.988 196.554 199.992 195.317 204.155Z" fill="#FD7583"/>
<path d="M179.094 286.961C178.919 287.958 178.748 288.938 178.584 289.897C178.584 289.897 173.175 293.44 163.824 290.427C163.824 290.427 163.882 289.306 163.951 287.437C164.023 285.509 164.108 282.786 164.158 279.677C164.238 274.587 164.22 268.463 163.886 263.095C163.537 257.454 162.838 252.647 161.54 250.759C159.08 247.183 155.983 244.601 152.539 242.775C146.947 239.805 140.439 238.823 134.262 238.803C126.272 238.632 121.871 230.128 126.792 220.098C126.792 220.098 133.067 219.716 139.687 219.313C147.076 218.863 154.893 218.388 154.891 218.386C189.06 228.62 183.268 262.938 179.094 286.961Z" fill="#1B1B1B"/>
<path d="M155.525 204.383C153.346 203.25 151.506 202.029 150 200.877L151.019 181.661C151.019 181.661 154.798 185.779 156.026 190.728C156.983 194.586 153.872 197.823 155.525 204.383Z" fill="#CC3E52"/>
<path d="M164.278 302.127L146.969 301.937C147.014 299.17 147.751 293.585 147.201 290.427C147.202 290.427 155.463 290.509 155.463 290.509C155.256 292.025 154.28 296.299 156.523 296.984C159.791 297.982 163.334 297.69 165.37 300.199C165.898 301.042 165.274 302.138 164.278 302.127Z" fill="#F99370"/>
<path d="M146.461 300.264C146.526 300.851 146.681 301.421 146.969 301.937L164.447 302.129C165.296 302.138 165.921 301.309 165.648 300.504C165.005 298.623 163.246 295.799 155.195 295.289C155.195 295.289 151.783 296.154 147.286 295.289C147.286 295.289 146.198 297.889 146.461 300.264Z" fill="#E8505B"/>
<path d="M160.51 299.83C160.648 299.83 160.779 299.748 160.836 299.612C161.494 298.04 162.654 297.569 162.704 297.549C163.13 297.39 162.876 296.718 162.45 296.888C162.389 296.911 160.963 297.473 160.183 299.339C160.082 299.566 160.264 299.835 160.51 299.83Z" fill="#EFEAE8"/>
<path d="M157.762 299.468C157.911 299.468 158.05 299.372 158.099 299.222C158.685 297.398 160.288 296.57 160.304 296.562C160.716 296.362 160.393 295.716 159.985 295.93C159.908 295.969 158.101 296.903 157.425 299.005C157.348 299.229 157.527 299.471 157.762 299.468Z" fill="#EFEAE8"/>
<path d="M154.635 299.048C154.78 299.048 154.916 298.958 154.968 298.814C155.65 296.921 157.188 295.903 157.204 295.893C157.591 295.649 157.201 295.044 156.819 295.298C156.748 295.344 155.067 296.448 154.302 298.574C154.215 298.799 154.396 299.052 154.635 299.048Z" fill="#EFEAE8"/>
<path d="M165.638 300.475L146.461 300.264C146.526 300.851 146.681 301.421 146.969 301.937L164.447 302.129C165.308 302.139 165.935 301.284 165.638 300.475Z" fill="#A6032F"/>
<path d="M166.426 256.097C166.258 267.881 165.097 275.429 164.158 279.677C164.322 269.239 164.074 254.445 161.539 250.759C159.079 247.183 155.983 244.601 152.539 242.775L153.106 226.667C153.106 226.667 166.716 235.873 166.426 256.097Z" fill="#050505"/>
<path d="M163.886 263.095C163.333 271.03 161.725 279.56 159.409 288.321C159.118 289.423 158.815 290.528 158.502 291.635C158.502 291.635 153.047 293.93 143.695 290.918C143.695 290.918 143.876 289.597 144.113 287.439L144.114 287.437C144.97 279.661 146.567 261.03 143.131 254.239C137.957 244.011 128.455 244.951 119.5 239.53C106.433 231.623 114.111 217.34 114.111 217.34C124.45 216.519 132.887 217.269 139.687 219.313C159.426 225.247 165.351 242.088 163.886 263.095Z" fill="#1B1B1B"/>
<path d="M139.37 141.376C139.37 141.376 135.489 137.323 129.166 139.09C122.842 140.858 124.538 145.049 122.111 148.59C119.935 151.766 120.277 155.454 122.448 159.092C124.086 161.837 119.636 162.803 120.639 166.704C121.718 170.905 137.999 173.507 145.329 169.131C152.659 164.754 146.404 157.836 146.617 154.045C146.831 150.254 139.37 141.376 139.37 141.376Z" fill="#1B1B1B"/>
<path d="M140.375 166.886C140.306 167.636 140.194 168.441 140.051 169.125C140.109 171.841 132.945 171.457 132.809 168.543C132.954 166.844 133.57 158.908 132.945 158.16C132.061 153.481 139.592 152.235 140.239 156.974C140.633 159.376 140.646 163.927 140.375 166.886Z" fill="#F99370"/>
<path d="M140.374 166.886C135.64 167.878 133.002 165.967 133.002 165.967L133.067 164.94C133.175 163.49 133.167 163.45 133.205 162.186L140.555 162.288C140.566 163.776 140.521 165.393 140.374 166.886Z" fill="#E57D61"/>
<path d="M138.214 141.287C147.502 138.829 151.091 153.532 145.44 159.918L138.214 141.287Z" fill="#1B1B1B"/>
<path d="M128.55 153.357C128.551 156.677 129.057 160.5 131.269 163.052L131.273 163.053C137.491 170.418 153.04 163.077 147.237 153.931C145.411 151.605 145.521 148.021 144.129 145.775C138.727 137.195 128.139 144.826 128.55 153.357Z" fill="#F99370"/>
<path d="M141.222 153.347C141.609 152.833 140.791 152.237 140.42 152.763C140.033 153.278 140.851 153.874 141.222 153.347Z" fill="#C16256"/>
<path d="M145.452 153.318C145.839 152.803 145.021 152.207 144.65 152.733C144.263 153.248 145.081 153.843 145.452 153.318Z" fill="#C16256"/>
<path d="M143.209 157.327C144.108 157.461 145.6 157.081 144.594 156.101C143.749 155.452 143.377 153.423 143.374 153.403C142.533 152.527 143.414 155.734 144.365 156.399C145.019 156.96 143.438 157.148 142.848 156.827C142.755 156.78 142.642 156.817 142.595 156.91C142.489 157.234 142.981 157.265 143.209 157.327Z" fill="#C16256"/>
<path d="M128.55 153.357C128.551 156.677 129.057 160.5 131.269 163.052L131.273 163.053C130.139 161.066 129.889 156.989 129.889 156.989L130.84 155.346C142.66 153.527 143.179 144.488 143.179 144.488C137.3 137.567 128.124 145.761 128.55 153.357Z" fill="#E57D61"/>
<path d="M142.083 143.352C142.083 143.352 141.556 152.397 130.912 154.432L127.623 151.86C125.214 144.388 133.218 135.271 142.083 143.352Z" fill="#1B1B1B"/>
<path d="M126.232 154.661C126.436 158.467 131.08 158.24 130.912 154.432C130.708 150.626 126.064 150.854 126.232 154.661Z" fill="#F99370"/>
<path d="M127.277 155.609C127.399 155.63 127.512 155.521 127.493 155.398C127.107 153.329 128.106 152.646 129.338 153.401C129.545 153.528 129.741 153.198 129.529 153.078C128.094 152.032 126.32 153.419 127.277 155.609Z" fill="#C16256"/>
<path d="M129.049 155.628C129.879 155.686 128.023 152.83 127.205 153.541C127.182 153.643 127.245 153.743 127.346 153.767C128.76 154.147 128.717 155.526 129.049 155.628Z" fill="#C16256"/>
<path d="M127.985 156.684C127.89 157.222 128.739 157.359 128.818 156.817C128.912 156.279 128.064 156.142 127.985 156.684Z" fill="#F4D4BE"/>
<path d="M114.316 218.623C130.797 223.731 152.417 221.483 154.891 218.387C157.532 215.081 157.616 210.761 154.687 204.62C151.445 197.823 157.254 194.484 152.995 185.605C148.137 175.474 144.518 171.198 144.518 171.198C144.518 171.198 138.293 172.85 127.891 170.279C118.278 176.017 114.316 218.623 114.316 218.623Z" fill="#FE7483"/>
<path d="M140.05 169.125C140.05 169.125 142.963 168.81 144.635 171.198C144.635 171.198 143.861 173.907 140.101 175.334C140.101 175.334 139.409 173.606 138.225 172.444C138.225 172.444 137.775 174.129 137.602 175.728C137.602 175.728 130.42 176.496 127.891 170.279C127.891 170.279 130.628 168.336 132.809 168.544C133.858 171.082 138.887 171.824 140.05 169.125Z" fill="#CC3E52"/>
<path d="M142.913 159.187C142.903 159.189 142.892 159.19 142.882 159.19C140.972 159.215 140.239 157.85 140.209 157.792C140.167 157.711 140.198 157.612 140.278 157.57C140.359 157.529 140.458 157.56 140.5 157.64C140.527 157.692 141.177 158.884 142.878 158.862C142.968 158.861 143.043 158.933 143.044 159.024C143.045 159.104 142.988 159.171 142.913 159.187Z" fill="#C16256"/>
<path d="M139.479 152.058C139.427 152.069 139.371 152.055 139.33 152.015C139.266 151.952 139.265 151.848 139.328 151.783C139.365 151.745 140.268 150.84 141.842 150.936C141.933 150.941 142.002 151.019 141.996 151.109C141.991 151.2 141.913 151.268 141.822 151.263C140.404 151.177 139.57 152.005 139.562 152.013C139.539 152.037 139.509 152.052 139.479 152.058Z" fill="#C16256"/>
<path d="M145.79 151.697C145.74 151.708 145.686 151.694 145.646 151.658C145.07 151.133 143.945 151.18 143.933 151.18C143.843 151.184 143.766 151.115 143.762 151.024C143.757 150.934 143.827 150.857 143.917 150.853C143.969 150.85 145.189 150.798 145.867 151.415C145.934 151.476 145.938 151.58 145.877 151.647C145.854 151.674 145.822 151.691 145.79 151.697Z" fill="#C16256"/>
<path d="M131.548 225.239C131.273 225.428 129.698 225.431 127.425 225.072C119.896 223.882 104.721 218.731 103.839 203.28C102.927 187.305 113.415 173.64 127.89 170.279C127.89 170.279 130.372 177.216 128.351 183.164C125.412 191.818 113.752 197.101 133.042 217.392C133.446 217.815 133.862 218.247 134.292 218.684C136.377 220.803 132.803 224.482 131.548 225.239Z" fill="#FD7583"/>
<path d="M133.236 218.245C133.16 218.245 133.085 218.213 133.03 218.152C127.099 211.484 123.397 207.047 122.058 200.13C120.752 193.385 126.582 186.183 126.831 185.88C126.928 185.762 127.101 185.745 127.219 185.842C127.337 185.938 127.354 186.112 127.258 186.23C127.198 186.302 121.343 193.536 122.599 200.025C123.913 206.814 127.397 210.99 133.442 217.786C133.543 217.899 133.533 218.074 133.419 218.175C133.367 218.222 133.301 218.245 133.236 218.245Z" fill="#CC3E52"/>
<path d="M131.784 225.082L134.787 225.787L136.619 220.902L134.916 219.968L131.784 225.082Z" fill="#F99370"/>
<path d="M131.548 225.239C131.273 225.428 129.698 225.431 127.425 225.072C127.427 225.072 127.427 225.071 127.428 225.071C131.655 222.669 133.042 217.391 133.042 217.391C133.446 217.815 133.862 218.246 134.292 218.684C136.377 220.803 132.803 224.482 131.548 225.239Z" fill="#CC3E52"/>
<path d="M149.513 229.044H141.593L140.088 216.074H151.019L149.513 229.044Z" fill="#F4D4BE"/>
<path d="M151.078 218.027H140.029C139.455 218.027 139.082 217.423 139.339 216.909L139.807 215.979C139.979 215.636 140.329 215.42 140.713 215.42H150.394C150.777 215.42 151.128 215.636 151.3 215.979L151.767 216.909C152.025 217.423 151.652 218.027 151.078 218.027Z" fill="#03A6A6"/>
<path d="M150.646 215.558H140.461L140.874 215.011C141.233 214.535 141.796 214.254 142.393 214.254H148.714C149.311 214.254 149.873 214.535 150.233 215.011L150.646 215.558Z" fill="#F9C0C0"/>
<path d="M149.848 226.12H141.219C141.044 226.12 140.897 225.989 140.877 225.815L140.339 221.156C140.316 220.951 140.476 220.772 140.681 220.772H150.386C150.592 220.772 150.751 220.952 150.728 221.156L150.19 225.815C150.17 225.989 150.023 226.12 149.848 226.12Z" fill="#03A6A6"/>
<path d="M140.602 220.511C142.177 221.057 143.717 221.083 143.724 221.092C145.771 220.828 147.801 220.454 149.814 219.988C150.455 219.823 150.76 220.817 150.126 221.034C148.233 221.728 146.305 222.341 144.353 222.854C144.354 222.864 144.354 222.875 144.354 222.885C146.509 223.062 148.677 223.121 150.837 222.997C153.835 224.58 144.807 224.567 144.078 224.611C144.077 224.616 144.075 224.621 144.073 224.626C146.072 225.135 148.134 225.4 150.197 225.443C153.023 227.326 143.942 226.568 143.192 226.36C143.188 226.367 143.183 226.374 143.179 226.381C144.69 227.009 146.282 227.445 147.882 227.796C150.22 229.908 142.651 228.181 141.969 227.937C141.156 227.863 137.007 227.829 133.961 225.593C132.987 224.878 134.609 222.094 135.398 221.206C136.284 220.208 139.941 219.181 140.461 219.007L140.602 220.511Z" fill="#F99370"/>
<path d="M159.409 288.321C159.118 289.423 158.815 290.528 158.502 291.635C158.502 291.635 153.047 293.93 143.695 290.918C143.695 290.918 143.876 289.597 144.113 287.439L144.114 287.437C144.114 287.437 152.907 290.075 159.409 288.321Z" fill="#050505"/>
<path d="M179.094 286.961C178.919 287.958 178.748 288.938 178.584 289.897C178.584 289.897 173.175 293.44 163.824 290.428C163.824 290.428 163.882 289.306 163.951 287.437C163.951 287.437 171.029 289.654 179.094 286.961Z" fill="#050505"/>
<path d="M195.317 204.155C195.317 204.155 194.436 204.646 192.84 205.312C193.827 200.104 191.523 197.867 191.523 197.867C193.017 197.957 193.95 197.988 193.95 197.988C193.95 197.988 196.554 199.992 195.317 204.155Z" fill="#CC3E52"/>
<path d="M209.346 299.037C220.482 299.037 229.509 296.513 229.509 293.399C229.509 290.286 220.482 287.762 209.346 287.762C198.211 287.762 189.184 290.286 189.184 293.399C189.184 296.513 198.211 299.037 209.346 299.037Z" fill="#667ECC"/>
<path d="M226.559 293.4C223.017 291.78 216.633 290.699 209.346 290.699C202.059 290.699 195.676 291.78 192.133 293.4H189.184V296.336C189.184 299.45 198.211 301.973 209.346 301.973C220.482 301.973 229.509 299.45 229.509 296.336V293.4H226.559Z" fill="#037F8C"/>
<path d="M209.346 299.037C220.482 299.037 229.509 296.513 229.509 293.399C229.509 290.286 220.482 287.762 209.346 287.762C198.211 287.762 189.184 290.286 189.184 293.399C189.184 296.513 198.211 299.037 209.346 299.037Z" fill="#03A6A6"/>
<path d="M209.346 293.433C208.13 293.433 207.144 292.447 207.144 291.23V218.852C207.144 217.636 208.13 216.649 209.346 216.649C210.563 216.649 211.549 217.636 211.549 218.852V291.23C211.549 292.447 210.563 293.433 209.346 293.433Z" fill="#037F8C"/>
<path d="M234.563 215.654H156.194V222.049H234.563V215.654Z" fill="#03A6A6"/>
</svg>
