<svg width="95" height="95" viewBox="0 0 95 95" fill="none" xmlns="http://www.w3.org/2000/svg">
<path d="M2.38743 91C2.17143 91 1.99143 90.928 1.84743 90.784C1.71543 90.64 1.64943 90.466 1.64943 90.262V79.12C1.64943 78.916 1.71543 78.748 1.84743 78.616C1.99143 78.472 2.16543 78.4 2.36943 78.4H8.68743C8.89143 78.4 9.06543 78.466 9.20943 78.598C9.35343 78.73 9.42543 78.898 9.42543 79.102C9.42543 79.294 9.35343 79.456 9.20943 79.588C9.06543 79.72 8.89143 79.786 8.68743 79.786H3.01743L3.12543 79.642V84.052L3.03543 83.854H7.87743C8.08143 83.854 8.25543 83.926 8.39943 84.07C8.54343 84.202 8.61543 84.37 8.61543 84.574C8.61543 84.754 8.54343 84.916 8.39943 85.06C8.25543 85.192 8.08143 85.258 7.87743 85.258H2.99943L3.12543 85.096V90.262C3.12543 90.466 3.05343 90.64 2.90943 90.784C2.76543 90.928 2.59143 91 2.38743 91ZM13.1592 90.262C13.1592 90.466 13.0872 90.64 12.9432 90.784C12.7992 90.928 12.6252 91 12.4212 91C12.2172 91 12.0492 90.928 11.9172 90.784C11.7852 90.64 11.7192 90.466 11.7192 90.262V78.4C11.7192 78.196 11.7852 78.028 11.9172 77.896C12.0612 77.752 12.2352 77.68 12.4392 77.68C12.6552 77.68 12.8292 77.752 12.9612 77.896C13.0932 78.028 13.1592 78.196 13.1592 78.4V90.262ZM22.6544 81.55C22.8584 81.55 23.0264 81.622 23.1584 81.766C23.3024 81.898 23.3744 82.066 23.3744 82.27V90.118C23.3744 91.126 23.1764 91.96 22.7804 92.62C22.3844 93.292 21.8504 93.79 21.1784 94.114C20.5184 94.438 19.7684 94.6 18.9284 94.6C18.4604 94.6 18.0104 94.552 17.5784 94.456C17.1464 94.36 16.7924 94.234 16.5164 94.078C16.2884 93.97 16.1264 93.832 16.0304 93.664C15.9464 93.508 15.9344 93.34 15.9944 93.16C16.0784 92.944 16.1984 92.794 16.3544 92.71C16.5224 92.626 16.6964 92.626 16.8764 92.71C17.0684 92.794 17.3444 92.908 17.7044 93.052C18.0764 93.208 18.4904 93.286 18.9464 93.286C19.5704 93.286 20.1044 93.166 20.5484 92.926C20.9924 92.686 21.3344 92.332 21.5744 91.864C21.8144 91.408 21.9344 90.838 21.9344 90.154V88.876L22.1504 89.326C21.9584 89.698 21.7004 90.022 21.3764 90.298C21.0524 90.574 20.6804 90.79 20.2604 90.946C19.8404 91.102 19.3784 91.18 18.8744 91.18C18.1904 91.18 17.6084 91.036 17.1284 90.748C16.6604 90.448 16.3004 90.04 16.0484 89.524C15.8084 88.996 15.6884 88.39 15.6884 87.706V82.27C15.6884 82.066 15.7544 81.898 15.8864 81.766C16.0304 81.622 16.2044 81.55 16.4084 81.55C16.6244 81.55 16.7984 81.622 16.9304 81.766C17.0624 81.898 17.1284 82.066 17.1284 82.27V87.382C17.1284 88.198 17.3084 88.816 17.6684 89.236C18.0284 89.644 18.5864 89.848 19.3424 89.848C19.8224 89.848 20.2544 89.74 20.6384 89.524C21.0344 89.308 21.3464 89.014 21.5744 88.642C21.8144 88.258 21.9344 87.838 21.9344 87.382V82.27C21.9344 82.066 22.0004 81.898 22.1324 81.766C22.2644 81.622 22.4384 81.55 22.6544 81.55ZM27.428 90.262C27.428 90.466 27.356 90.64 27.212 90.784C27.08 90.928 26.912 91 26.708 91C26.492 91 26.318 90.928 26.186 90.784C26.054 90.64 25.988 90.466 25.988 90.262V82.27C25.988 82.066 26.054 81.898 26.186 81.766C26.33 81.622 26.504 81.55 26.708 81.55C26.912 81.55 27.08 81.622 27.212 81.766C27.356 81.898 27.428 82.066 27.428 82.27V90.262ZM26.708 80.344C26.408 80.344 26.186 80.284 26.042 80.164C25.898 80.044 25.826 79.858 25.826 79.606V79.354C25.826 79.102 25.904 78.916 26.06 78.796C26.216 78.676 26.438 78.616 26.726 78.616C27.014 78.616 27.23 78.676 27.374 78.796C27.518 78.916 27.59 79.102 27.59 79.354V79.606C27.59 79.858 27.512 80.044 27.356 80.164C27.212 80.284 26.996 80.344 26.708 80.344ZM34.6406 81.46C35.4566 81.46 36.0986 81.628 36.5666 81.964C37.0346 82.3 37.3646 82.75 37.5566 83.314C37.7606 83.878 37.8626 84.508 37.8626 85.204V90.262C37.8626 90.466 37.7906 90.64 37.6466 90.784C37.5146 90.928 37.3466 91 37.1426 91C36.9386 91 36.7646 90.928 36.6206 90.784C36.4886 90.64 36.4226 90.466 36.4226 90.262V85.24C36.4226 84.784 36.3506 84.376 36.2066 84.016C36.0746 83.644 35.8466 83.35 35.5226 83.134C35.2106 82.906 34.7786 82.792 34.2266 82.792C33.7226 82.792 33.2606 82.906 32.8406 83.134C32.4206 83.35 32.0846 83.644 31.8326 84.016C31.5806 84.376 31.4546 84.784 31.4546 85.24V90.262C31.4546 90.466 31.3826 90.64 31.2386 90.784C31.1066 90.928 30.9386 91 30.7346 91C30.5306 91 30.3566 90.928 30.2126 90.784C30.0806 90.64 30.0146 90.466 30.0146 90.262V82.414C30.0146 82.21 30.0806 82.042 30.2126 81.91C30.3566 81.766 30.5306 81.694 30.7346 81.694C30.9506 81.694 31.1246 81.766 31.2566 81.91C31.3886 82.042 31.4546 82.21 31.4546 82.414V83.692L31.0946 84.088C31.1546 83.776 31.2926 83.464 31.5086 83.152C31.7246 82.828 31.9946 82.54 32.3186 82.288C32.6426 82.036 33.0026 81.838 33.3986 81.694C33.7946 81.538 34.2086 81.46 34.6406 81.46ZM40.9583 90.982C40.7063 90.982 40.5083 90.91 40.3643 90.766C40.2323 90.622 40.1663 90.424 40.1663 90.172V89.812C40.1663 89.548 40.2323 89.344 40.3643 89.2C40.5083 89.056 40.7063 88.984 40.9583 88.984H41.1023C41.3663 88.984 41.5643 89.056 41.6963 89.2C41.8283 89.344 41.8943 89.548 41.8943 89.812V90.172C41.8943 90.424 41.8283 90.622 41.6963 90.766C41.5643 90.91 41.3663 90.982 41.1023 90.982H40.9583ZM53.0812 91.18C52.1932 91.18 51.4132 91.048 50.7412 90.784C50.0692 90.52 49.4212 90.1 48.7972 89.524C48.7132 89.44 48.6412 89.35 48.5812 89.254C48.5332 89.146 48.5092 89.032 48.5092 88.912C48.5092 88.72 48.5752 88.552 48.7072 88.408C48.8512 88.252 49.0252 88.174 49.2292 88.174C49.3972 88.174 49.5472 88.24 49.6792 88.372C50.1472 88.828 50.6512 89.176 51.1912 89.416C51.7432 89.656 52.3612 89.776 53.0452 89.776C53.5732 89.776 54.0472 89.692 54.4672 89.524C54.8992 89.356 55.2412 89.122 55.4932 88.822C55.7452 88.522 55.8712 88.174 55.8712 87.778C55.8592 87.298 55.7152 86.902 55.4392 86.59C55.1752 86.278 54.8032 86.02 54.3232 85.816C53.8552 85.6 53.3092 85.42 52.6852 85.276C52.1332 85.144 51.6232 84.982 51.1552 84.79C50.6992 84.598 50.3032 84.364 49.9672 84.088C49.6312 83.8 49.3672 83.458 49.1752 83.062C48.9952 82.654 48.9052 82.18 48.9052 81.64C48.9052 80.956 49.0852 80.356 49.4452 79.84C49.8052 79.324 50.3032 78.928 50.9392 78.652C51.5752 78.364 52.3072 78.22 53.1352 78.22C53.8672 78.22 54.5572 78.34 55.2052 78.58C55.8652 78.82 56.3932 79.15 56.7892 79.57C57.0292 79.798 57.1492 80.02 57.1492 80.236C57.1492 80.416 57.0712 80.584 56.9152 80.74C56.7712 80.884 56.6032 80.956 56.4112 80.956C56.2792 80.956 56.1592 80.908 56.0512 80.812C55.8472 80.584 55.5892 80.38 55.2772 80.2C54.9652 80.02 54.6232 79.876 54.2512 79.768C53.8792 79.66 53.5072 79.606 53.1352 79.606C52.5832 79.606 52.0972 79.69 51.6772 79.858C51.2572 80.014 50.9272 80.242 50.6872 80.542C50.4592 80.83 50.3452 81.178 50.3452 81.586C50.3452 82.042 50.4772 82.42 50.7412 82.72C51.0052 83.008 51.3592 83.248 51.8032 83.44C52.2472 83.62 52.7392 83.782 53.2792 83.926C53.8672 84.07 54.4072 84.238 54.8992 84.43C55.4032 84.61 55.8352 84.838 56.1952 85.114C56.5552 85.39 56.8312 85.744 57.0232 86.176C57.2272 86.596 57.3292 87.118 57.3292 87.742C57.3292 88.402 57.1432 88.99 56.7712 89.506C56.3992 90.022 55.8892 90.43 55.2412 90.73C54.6052 91.018 53.8852 91.168 53.0812 91.18ZM67.1611 81.604C67.3651 81.604 67.5331 81.676 67.6651 81.82C67.8091 81.952 67.8811 82.12 67.8811 82.324V90.262C67.8811 90.466 67.8091 90.64 67.6651 90.784C67.5331 90.928 67.3651 91 67.1611 91C66.9451 91 66.7711 90.928 66.6391 90.784C66.5071 90.64 66.4411 90.466 66.4411 90.262V88.552L66.7831 88.516C66.7831 88.78 66.6931 89.068 66.5131 89.38C66.3331 89.692 66.0871 89.986 65.7751 90.262C65.4631 90.526 65.0911 90.748 64.6591 90.928C64.2391 91.096 63.7831 91.18 63.2911 91.18C62.4751 91.18 61.7431 90.97 61.0951 90.55C60.4471 90.118 59.9311 89.536 59.5471 88.804C59.1751 88.072 58.9891 87.238 58.9891 86.302C58.9891 85.354 59.1751 84.52 59.5471 83.8C59.9311 83.068 60.4471 82.498 61.0951 82.09C61.7431 81.67 62.4631 81.46 63.2551 81.46C63.7711 81.46 64.2511 81.544 64.6951 81.712C65.1391 81.88 65.5231 82.108 65.8471 82.396C66.1831 82.684 66.4411 83.002 66.6211 83.35C66.8131 83.698 66.9091 84.046 66.9091 84.394L66.4411 84.286V82.324C66.4411 82.12 66.5071 81.952 66.6391 81.82C66.7711 81.676 66.9451 81.604 67.1611 81.604ZM63.4531 89.848C64.0531 89.848 64.5811 89.692 65.0371 89.38C65.5051 89.068 65.8651 88.648 66.1171 88.12C66.3811 87.58 66.5131 86.974 66.5131 86.302C66.5131 85.642 66.3811 85.048 66.1171 84.52C65.8651 83.98 65.5051 83.56 65.0371 83.26C64.5811 82.948 64.0531 82.792 63.4531 82.792C62.8651 82.792 62.3371 82.942 61.8691 83.242C61.4131 83.542 61.0531 83.956 60.7891 84.484C60.5251 85.012 60.3931 85.618 60.3931 86.302C60.3931 86.974 60.5191 87.58 60.7711 88.12C61.0351 88.648 61.3951 89.068 61.8511 89.38C62.3191 89.692 62.8531 89.848 63.4531 89.848ZM72.1338 90.262C72.1338 90.466 72.0618 90.64 71.9178 90.784C71.7738 90.928 71.5998 91 71.3958 91C71.1918 91 71.0238 90.928 70.8918 90.784C70.7598 90.64 70.6938 90.466 70.6938 90.262V78.4C70.6938 78.196 70.7598 78.028 70.8918 77.896C71.0358 77.752 71.2098 77.68 71.4138 77.68C71.6298 77.68 71.8038 77.752 71.9358 77.896C72.0678 78.028 72.1338 78.196 72.1338 78.4V90.262ZM83.5889 86.32C83.5889 87.256 83.3789 88.09 82.9589 88.822C82.5509 89.554 81.9929 90.13 81.2849 90.55C80.5889 90.97 79.8029 91.18 78.9269 91.18C78.0509 91.18 77.2589 90.97 76.5509 90.55C75.8429 90.13 75.2789 89.554 74.8589 88.822C74.4509 88.09 74.2469 87.256 74.2469 86.32C74.2469 85.384 74.4509 84.55 74.8589 83.818C75.2789 83.086 75.8429 82.51 76.5509 82.09C77.2589 81.67 78.0509 81.46 78.9269 81.46C79.8029 81.46 80.5889 81.67 81.2849 82.09C81.9929 82.51 82.5509 83.086 82.9589 83.818C83.3789 84.55 83.5889 85.384 83.5889 86.32ZM82.1489 86.32C82.1489 85.624 82.0049 85.012 81.7169 84.484C81.4409 83.956 81.0569 83.542 80.5649 83.242C80.0849 82.942 79.5389 82.792 78.9269 82.792C78.3149 82.792 77.7629 82.942 77.2709 83.242C76.7909 83.542 76.4069 83.956 76.1189 84.484C75.8309 85.012 75.6869 85.624 75.6869 86.32C75.6869 87.004 75.8309 87.61 76.1189 88.138C76.4069 88.666 76.7909 89.086 77.2709 89.398C77.7629 89.698 78.3149 89.848 78.9269 89.848C79.5389 89.848 80.0849 89.698 80.5649 89.398C81.0569 89.086 81.4409 88.666 81.7169 88.138C82.0049 87.61 82.1489 87.004 82.1489 86.32ZM90.3809 81.46C91.1969 81.46 91.8389 81.628 92.3069 81.964C92.7749 82.3 93.1049 82.75 93.2969 83.314C93.5009 83.878 93.6029 84.508 93.6029 85.204V90.262C93.6029 90.466 93.5309 90.64 93.3869 90.784C93.2549 90.928 93.0869 91 92.8829 91C92.6789 91 92.5049 90.928 92.3609 90.784C92.2289 90.64 92.1629 90.466 92.1629 90.262V85.24C92.1629 84.784 92.0909 84.376 91.9469 84.016C91.8149 83.644 91.5869 83.35 91.2629 83.134C90.9509 82.906 90.5189 82.792 89.9669 82.792C89.4629 82.792 89.0009 82.906 88.5809 83.134C88.1609 83.35 87.8249 83.644 87.5729 84.016C87.3209 84.376 87.1949 84.784 87.1949 85.24V90.262C87.1949 90.466 87.1229 90.64 86.9789 90.784C86.8469 90.928 86.6789 91 86.4749 91C86.2709 91 86.0969 90.928 85.9529 90.784C85.8209 90.64 85.7549 90.466 85.7549 90.262V82.414C85.7549 82.21 85.8209 82.042 85.9529 81.91C86.0969 81.766 86.2709 81.694 86.4749 81.694C86.6909 81.694 86.8649 81.766 86.9969 81.91C87.1289 82.042 87.1949 82.21 87.1949 82.414V83.692L86.8349 84.088C86.8949 83.776 87.0329 83.464 87.2489 83.152C87.4649 82.828 87.7349 82.54 88.0589 82.288C88.3829 82.036 88.7429 81.838 89.1389 81.694C89.5349 81.538 89.9489 81.46 90.3809 81.46Z" fill="black"/>
<g clip-path="url(#clip0_212_2233)">
<path fill-rule="evenodd" clip-rule="evenodd" d="M93.9132 0.217581C93.353 1.12463 92.7852 2.02704 92.2341 2.93953C90.845 5.23907 89.5688 7.61555 88.0511 9.82624C86.3433 12.3138 84.1134 14.3421 81.6945 16.1469C77.2652 19.4516 72.3138 21.6878 67.0785 23.3691C62.08 24.9742 57.1006 26.6392 52.1179 28.293C50.549 28.8138 48.9697 29.3189 47.4435 29.9488C45.781 30.6346 44.391 31.7293 43.371 33.2383C42.7054 34.2227 42.532 35.3613 42.3671 36.5133C41.9121 39.6929 41.4089 42.8657 40.936 46.043C40.664 47.8712 40.384 49.6991 40.161 51.5335C39.8264 54.2857 38.2703 56.2057 35.9258 57.4223C33.5575 58.6512 31.0727 59.6577 28.625 60.7302C23.7455 62.8681 18.8559 64.9828 13.9718 67.1102C10.5656 68.5937 7.0003 69.3974 3.30018 69.6349C2.95615 69.657 2.61408 69.7109 2.2712 69.7501C1.84743 69.7501 1.42377 69.7501 1 69.7501C2.73172 68.7511 4.4579 67.7424 6.19609 66.7551C10.7271 64.1813 15.2662 61.622 19.7961 59.046C21.584 58.0294 23.4002 57.0528 25.123 55.9339C27.1484 54.6183 28.6485 52.8253 29.2025 50.4093C29.4598 49.2878 29.5441 48.1263 29.7031 46.9825C30.2918 42.748 30.88 38.5137 31.4663 34.279C31.7592 32.1629 32.035 30.0443 32.3574 27.9329C32.391 27.7127 32.651 27.4495 32.8712 27.3477C34.7564 26.4755 36.6563 25.635 38.5524 24.7867C43.6614 22.5011 48.7706 20.2161 53.88 17.9316C62.0104 14.2963 70.1418 10.6636 78.2711 7.02632C83.3804 4.74031 88.4869 2.4484 93.5933 0.1558C93.6711 0.120744 93.8757 0.0373286 93.897 0.0258748C94.0306 -0.042732 94.0324 0.0259905 93.9132 0.217581Z" fill="#1B1B1B"/>
<path fill-rule="evenodd" clip-rule="evenodd" d="M45.825 44.8162C45.94 43.9447 46.0298 43.1677 46.1474 42.3949C46.3206 41.2559 46.4879 40.115 46.706 38.9843C46.8944 38.0084 47.0303 36.9967 47.4014 36.0876C48.1512 34.2506 49.6337 33.0218 51.386 32.2519C53.2971 31.4123 55.3004 30.773 57.2869 30.1174C61.6498 28.6773 66.0275 27.2824 70.3988 25.8684C75.5021 24.2178 80.5999 22.5503 85.7105 20.9223C88.2562 20.1114 90.8248 19.3724 93.3835 18.6022C93.4327 18.5874 93.6209 18.5425 93.6749 18.5425C93.1399 19.3389 92.6402 20.1017 92.1434 20.8209C90.6792 22.941 89.2317 25.0733 87.7336 27.1692C86.0844 29.4764 84.0192 31.3684 81.7188 33.012C77.0436 36.3526 71.7882 38.3463 66.2594 39.7186C61.2241 40.9685 56.1946 42.2428 51.1632 43.5089C49.6166 43.898 48.0726 44.2968 46.5265 44.6874C46.3426 44.7336 46.1531 44.7569 45.825 44.8162Z" fill="#E7505B"/>
<path fill-rule="evenodd" clip-rule="evenodd" d="M44.7888 54.633C44.8028 53.5843 45.1601 52.6935 45.6309 51.8625C47.193 49.1055 49.6673 47.4059 52.5674 46.4395C55.9386 45.3161 59.3965 44.4508 62.8254 43.5043C67.6638 42.1689 72.51 40.8614 77.3533 39.5434C77.5898 39.479 77.83 39.4274 78.2364 39.3293C77.6965 40.0149 77.2531 40.5799 76.8076 41.1434C75.3778 42.9517 73.9836 44.7897 72.5072 46.559C70.8821 48.507 68.7036 49.6172 66.2872 50.1952C63.5015 50.8616 60.6824 51.389 57.8762 51.969C53.659 52.8405 49.4404 53.7054 45.2221 54.5719C45.1094 54.5948 44.9942 54.6044 44.7888 54.633Z" fill="#1B1B1B"/>
</g>
<defs>
<clipPath id="clip0_212_2233">
<rect width="93" height="69.75" fill="white" transform="translate(1)"/>
</clipPath>
</defs>
</svg>
