<svg xmlns="http://www.w3.org/2000/svg" xmlns:xlink="http://www.w3.org/1999/xlink" width="500" zoomAndPan="magnify" viewBox="0 0 375 374.999991" height="500" preserveAspectRatio="xMidYMid meet" version="1.0"><defs><g/><clipPath id="f054a31ee6"><path d="M 8.871094 50.296875 L 166 50.296875 L 166 290.296875 L 8.871094 290.296875 Z M 8.871094 50.296875 " clip-rule="nonzero"/></clipPath><clipPath id="92b5bfde45"><path d="M 142 50.296875 L 300 50.296875 L 300 290.296875 L 142 290.296875 Z M 142 50.296875 " clip-rule="nonzero"/></clipPath><clipPath id="73cd3f7ebe"><path d="M 75 50.296875 L 233 50.296875 L 233 290.296875 L 75 290.296875 Z M 75 50.296875 " clip-rule="nonzero"/></clipPath><clipPath id="752761789c"><path d="M 209 50.296875 L 365.871094 50.296875 L 365.871094 290.296875 L 209 290.296875 Z M 209 50.296875 " clip-rule="nonzero"/></clipPath></defs><g clip-path="url(#f054a31ee6)"><path fill="#000000" d="M 101.4375 50.277344 L 8.917969 50.277344 L 72.914062 290.542969 L 165.433594 290.542969 L 101.4375 50.277344 " fill-opacity="1" fill-rule="nonzero"/></g><g clip-path="url(#92b5bfde45)"><path fill="#000000" d="M 235.125 50.277344 L 142.605469 50.277344 L 206.601562 290.542969 L 299.125 290.542969 L 235.125 50.277344 " fill-opacity="1" fill-rule="nonzero"/></g><g clip-path="url(#73cd3f7ebe)"><path fill="#f13223" d="M 168.375 290.542969 L 75.851562 290.542969 L 139.851562 50.277344 L 232.371094 50.277344 L 168.375 290.542969 " fill-opacity="1" fill-rule="nonzero"/></g><g clip-path="url(#752761789c)"><path fill="#f13223" d="M 302.0625 290.542969 L 209.539062 290.542969 L 273.535156 50.277344 L 366.058594 50.277344 L 302.0625 290.542969 " fill-opacity="1" fill-rule="nonzero"/></g><g fill="#000000" fill-opacity="1"><g transform="translate(115.870605, 326.829041)"><g><path d="M 8.523438 0.425781 L 9.238281 0.425781 L 12.945312 -8.695312 L 16.679688 0.34375 L 17.421875 0.34375 L 25.746094 -20.386719 L 21.15625 -20.386719 L 17.050781 -9.980469 L 13.058594 -20.1875 L 12.859375 -20.1875 L 8.867188 -9.980469 L 4.761719 -20.386719 L 0.171875 -20.386719 Z M 8.523438 0.425781 "/></g></g></g><g fill="#000000" fill-opacity="1"><g transform="translate(145.713823, 326.829041)"><g><path d="M 12.828125 0 L 12.828125 -4.078125 L 6.359375 -4.078125 L 6.359375 -8.152344 L 11.71875 -8.152344 L 11.71875 -12.230469 L 6.359375 -12.230469 L 6.359375 -16.308594 L 12.488281 -16.308594 L 12.488281 -20.386719 L 2.28125 -20.386719 L 2.28125 0 Z M 12.828125 0 "/></g></g></g><g fill="#000000" fill-opacity="1"><g transform="translate(163.985326, 326.829041)"><g><path d="M 1.082031 -11.632812 L 1.082031 -7.839844 L 11.460938 -7.839844 L 11.460938 -11.632812 Z M 1.082031 -11.632812 "/></g></g></g><g fill="#000000" fill-opacity="1"><g transform="translate(180.831737, 326.829041)"><g><path d="M 12.828125 0 L 12.828125 -4.078125 L 6.359375 -4.078125 L 6.359375 -8.152344 L 11.71875 -8.152344 L 11.71875 -12.230469 L 6.359375 -12.230469 L 6.359375 -16.308594 L 12.488281 -16.308594 L 12.488281 -20.386719 L 2.28125 -20.386719 L 2.28125 0 Z M 12.828125 0 "/></g></g></g><g fill="#000000" fill-opacity="1"><g transform="translate(199.103243, 326.829041)"><g><path d="M 0.457031 0 L 5.074219 0 L 5.875 -2.195312 L 12.628906 -2.195312 L 13.457031 0 L 18.046875 0 L 9.464844 -21.125 L 9.039062 -21.125 Z M 7.355469 -6.015625 L 9.265625 -11.320312 L 11.121094 -6.015625 Z M 7.355469 -6.015625 "/></g></g></g><g fill="#000000" fill-opacity="1"><g transform="translate(221.621514, 326.829041)"><g><path d="M 1.339844 -1.3125 C 4.105469 0.113281 6.644531 0.257812 7.785156 0.171875 C 11.605469 -0.0273438 13.941406 -2.621094 13.941406 -6.015625 C 13.941406 -9.265625 11.203125 -11.089844 8.039062 -12.257812 C 6.871094 -12.660156 5.875 -13.171875 5.757812 -14.3125 C 5.671875 -15.453125 6.328125 -16.507812 7.785156 -16.59375 C 8.410156 -16.621094 9.695312 -16.652344 11.945312 -15.738281 L 12.460938 -19.671875 C 9.835938 -20.585938 8.4375 -20.585938 7.382812 -20.527344 C 3.992188 -20.355469 1.625 -17.734375 1.625 -14.3125 C 1.625 -10.890625 4.476562 -9.265625 7.667969 -8.097656 C 8.808594 -7.699219 9.695312 -7.183594 9.78125 -6.015625 C 9.894531 -4.902344 8.867188 -4.046875 7.667969 -3.964844 C 6.730469 -3.878906 4.191406 -3.933594 1.851562 -5.589844 Z M 1.339844 -1.3125 "/></g></g></g><g fill="#000000" fill-opacity="1"><g transform="translate(240.605566, 326.829041)"><g><path d="M 7.269531 0 L 11.320312 0 L 11.320312 -9.179688 L 18.445312 -20.386719 L 13.457031 -20.386719 L 9.292969 -13.371094 L 5.132812 -20.386719 L 0.171875 -20.386719 L 7.269531 -9.179688 Z M 7.269531 0 "/></g></g></g></svg>