<svg width="21" height="20" viewBox="0 0 21 20" fill="none" xmlns="http://www.w3.org/2000/svg">
<path fill-rule="evenodd" clip-rule="evenodd" d="M10.25 1.66667C5.65 1.66667 1.91666 5.40001 1.91666 10C1.91666 14.6 5.65 18.3333 10.25 18.3333C14.85 18.3333 18.5833 14.6 18.5833 10C18.5833 5.40001 14.85 1.66667 10.25 1.66667ZM15.55 14.025C14.3583 12.575 11.4667 12.0833 10.25 12.0833C9.03333 12.0833 6.14166 12.575 4.95 14.025C4.1 12.9083 3.58333 11.5167 3.58333 10C3.58333 6.32501 6.575 3.33334 10.25 3.33334C13.925 3.33334 16.9167 6.32501 16.9167 10C16.9167 11.5167 16.4 12.9083 15.55 14.025ZM7.33333 7.91667C7.33333 6.30001 8.63333 5.00001 10.25 5.00001C11.8667 5.00001 13.1667 6.30001 13.1667 7.91667C13.1667 9.53334 11.8667 10.8333 10.25 10.8333C8.63333 10.8333 7.33333 9.53334 7.33333 7.91667Z" fill="#94A3B8"/>
</svg>
