<svg width="20" height="20" viewBox="0 0 20 20" fill="none" xmlns="http://www.w3.org/2000/svg">
<path d="M15.3033 14.47L10 19.7733L4.69667 14.47C3.64779 13.4211 2.93349 12.0847 2.64411 10.6299C2.35473 9.17501 2.50326 7.66701 3.07092 6.29657C3.63858 4.92613 4.59987 3.7548 5.83324 2.93069C7.0666 2.10658 8.51665 1.66672 10 1.66672C11.4834 1.66672 12.9334 2.10658 14.1668 2.93069C15.4001 3.7548 16.3614 4.92613 16.9291 6.29657C17.4968 7.66701 17.6453 9.17501 17.3559 10.6299C17.0665 12.0847 16.3522 13.4211 15.3033 14.47ZM9.16667 8.33332H6.66667V9.99999H9.16667V12.5H10.8333V9.99999H13.3333V8.33332H10.8333V5.83332H9.16667V8.33332Z" fill="white"/>
</svg>
