<svg width="20" height="20" viewBox="0 0 20 20" fill="none" xmlns="http://www.w3.org/2000/svg">
<path d="M14.167 3.33341H17.5003C17.7213 3.33341 17.9333 3.42121 18.0896 3.57749C18.2459 3.73377 18.3337 3.94573 18.3337 4.16675V17.5001C18.3337 17.7211 18.2459 17.9331 18.0896 18.0893C17.9333 18.2456 17.7213 18.3334 17.5003 18.3334H2.50033C2.27931 18.3334 2.06735 18.2456 1.91107 18.0893C1.75479 17.9331 1.66699 17.7211 1.66699 17.5001V4.16675C1.66699 3.94573 1.75479 3.73377 1.91107 3.57749C2.06735 3.42121 2.27931 3.33341 2.50033 3.33341H5.83366V1.66675H7.50033V3.33341H12.5003V1.66675H14.167V3.33341ZM3.33366 8.33342V16.6667H16.667V8.33342H3.33366ZM5.00033 11.6667H9.16699V15.0001H5.00033V11.6667Z" fill="#94A3B8"/>
</svg>
