<svg width="20" height="20" viewBox="0 0 20 20" fill="none" xmlns="http://www.w3.org/2000/svg">
<path d="M17.5 16.6658C17.5 16.8868 17.4122 17.0988 17.2559 17.2551C17.0996 17.4113 16.8877 17.4991 16.6667 17.4991H3.33333C3.11232 17.4991 2.90036 17.4113 2.74408 17.2551C2.5878 17.0988 2.5 16.8868 2.5 16.6658V7.7608C2.49995 7.63493 2.52842 7.51068 2.58326 7.39738C2.63811 7.28408 2.71791 7.18468 2.81667 7.10663L9.48333 1.84747C9.63046 1.73121 9.81249 1.66797 10 1.66797C10.1875 1.66797 10.3695 1.73121 10.5167 1.84747L17.1833 7.1058C17.2822 7.18393 17.3621 7.28347 17.4169 7.39692C17.4718 7.51037 17.5002 7.63479 17.5 7.7608V16.6658ZM5.83333 9.99913C5.83333 11.1042 6.27232 12.164 7.05372 12.9454C7.83512 13.7268 8.89493 14.1658 10 14.1658C11.1051 14.1658 12.1649 13.7268 12.9463 12.9454C13.7277 12.164 14.1667 11.1042 14.1667 9.99913H12.5C12.5 10.6622 12.2366 11.2981 11.7678 11.7669C11.2989 12.2357 10.663 12.4991 10 12.4991C9.33696 12.4991 8.70107 12.2357 8.23223 11.7669C7.76339 11.2981 7.5 10.6622 7.5 9.99913H5.83333Z" fill="#94A3B8"/>
</svg>
