<svg width="41" height="40" viewBox="0 0 41 40" fill="none" xmlns="http://www.w3.org/2000/svg">
<path fill-rule="evenodd" clip-rule="evenodd" d="M38.375 18.1481H37.0417V32.9167H13.0417V18.1481H11.7083L18.375 8.75H31.7083L38.375 18.1481ZM15.7083 30.2315V18.1481L20.375 12.1065L25.0417 18.1481H34.375V30.2315H23.7083V22.1759H18.375V30.2315H15.7083ZM26.375 22.1759H31.7083V27.5463H26.375V22.1759ZM7.15104 20.4167H8.34895V25.1786H10.316C10.9073 25.1786 11.4101 25.6073 11.5 26.188L11.6202 26.9643H3.8798L3.99997 26.188C4.08988 25.6073 4.5927 25.1786 5.18396 25.1786H7.15104V20.4167ZM11.8045 28.1548H3.69551L2.95833 32.9167H5.65364L5.95312 31.7262L6.2526 32.9167H7.75H9.24739L9.54687 30.5357L10.1458 32.9167H12.5417L11.8045 28.1548Z" fill="#235BAA"/>
</svg>
