<svg width="20" height="20" viewBox="0 0 20 20" fill="none" xmlns="http://www.w3.org/2000/svg">
<path fill-rule="evenodd" clip-rule="evenodd" d="M10 19.7736L15.3033 14.4703C16.3522 13.4214 17.0665 12.085 17.3559 10.6301C17.6453 9.17528 17.4968 7.66729 16.9291 6.29684C16.3614 4.9264 15.4001 3.75507 14.1668 2.93096C12.9334 2.10686 11.4834 1.66699 10 1.66699C8.51665 1.66699 7.0666 2.10686 5.83324 2.93096C4.59987 3.75507 3.63858 4.9264 3.07092 6.29684C2.50326 7.66729 2.35473 9.17528 2.64411 10.6301C2.93349 12.085 3.64779 13.4214 4.69667 14.4703L10 19.7736ZM10.0001 11.2503L12.4493 12.5378L11.9818 9.81111L13.9626 7.87944L11.2243 7.48111L10.0001 5.00027L8.7751 7.48111L6.0376 7.87944L8.01843 9.81111L7.55176 12.5378L10.0001 11.2503Z" fill="#235BAA"/>
</svg>
