<svg width="24" height="24" viewBox="0 0 24 24" fill="none" xmlns="http://www.w3.org/2000/svg">
<path d="M10.9999 17.938C8.98259 17.6813 7.13874 16.6661 5.84307 15.0988C4.5474 13.5314 3.89716 11.5295 4.0245 9.49997C4.15184 7.47041 5.04721 5.56549 6.52863 4.17238C8.01004 2.77927 9.96633 2.00252 11.9999 2C14.0359 1.99849 15.9959 2.77334 17.4805 4.16668C18.9652 5.56002 19.8626 7.467 19.9901 9.49904C20.1176 11.5311 19.4655 13.5353 18.1667 15.1033C16.8679 16.6712 15.0201 17.685 12.9999 17.938V21H10.9999V17.938ZM4.99988 22H18.9999V24H4.99988V22Z" fill="#0A0D13"/>
</svg>
