<svg width="24" height="24" viewBox="0 0 24 24" fill="none" xmlns="http://www.w3.org/2000/svg">
<path d="M1.5 6C1.5 3.51472 3.51472 1.5 6 1.5H18C20.4853 1.5 22.5 3.51472 22.5 6V18C22.5 20.4853 20.4853 22.5 18 22.5H6C3.51472 22.5 1.5 20.4853 1.5 18V6Z" fill="url(#paint0_linear_8580_129)"/>
<path d="M5.125 9.9375H18.1875C18.3698 9.9375 18.5447 10.0099 18.6736 10.1389C18.8026 10.2678 18.875 10.4427 18.875 10.625V17.5C18.875 17.6823 18.8026 17.8572 18.6736 17.9861C18.5447 18.1151 18.3698 18.1875 18.1875 18.1875H5.8125C5.63016 18.1875 5.4553 18.1151 5.32636 17.9861C5.19743 17.8572 5.125 17.6823 5.125 17.5V9.9375ZM5.8125 5.8125H16.125V8.5625H5.125V6.5C5.125 6.31766 5.19743 6.1428 5.32636 6.01386C5.4553 5.88493 5.63016 5.8125 5.8125 5.8125ZM14.0625 13.375V14.75H16.125V13.375H14.0625Z" fill="white"/>
<defs>
<linearGradient id="paint0_linear_8580_129" x1="22.5" y1="1.5" x2="1.5" y2="22.5" gradientUnits="userSpaceOnUse">
<stop stop-color="#8A3CFF"/>
<stop offset="1" stop-color="#563981"/>
</linearGradient>
</defs>
</svg>
