<svg width="41" height="40" viewBox="0 0 41 40" fill="none" xmlns="http://www.w3.org/2000/svg">
<path d="M12.625 17.5C15.3864 17.5 17.625 15.2614 17.625 12.5C17.625 9.73858 15.3864 7.5 12.625 7.5C9.86358 7.5 7.625 9.73858 7.625 12.5C7.625 15.2614 9.86358 17.5 12.625 17.5Z" fill="#235BAA"/>
<path d="M12.625 32.5C15.3864 32.5 17.625 30.2614 17.625 27.5C17.625 24.7386 15.3864 22.5 12.625 22.5C9.86358 22.5 7.625 24.7386 7.625 27.5C7.625 30.2614 9.86358 32.5 12.625 32.5Z" fill="#235BAA"/>
<path d="M32.625 12.5C32.625 15.2614 30.3864 17.5 27.625 17.5C24.8636 17.5 22.625 15.2614 22.625 12.5C22.625 9.73858 24.8636 7.5 27.625 7.5C30.3864 7.5 32.625 9.73858 32.625 12.5Z" fill="#235BAA"/>
<path d="M27.625 32.5C30.3864 32.5 32.625 30.2614 32.625 27.5C32.625 24.7386 30.3864 22.5 27.625 22.5C24.8636 22.5 22.625 24.7386 22.625 27.5C22.625 30.2614 24.8636 32.5 27.625 32.5Z" fill="#235BAA"/>
</svg>
