<svg width="21" height="20" viewBox="0 0 21 20" fill="none" xmlns="http://www.w3.org/2000/svg">
<path d="M17.1667 15.5558L17.5 16C17.5464 16.0619 17.5747 16.1355 17.5817 16.2126C17.5886 16.2897 17.574 16.3671 17.5393 16.4363C17.5047 16.5056 17.4515 16.5638 17.3857 16.6044C17.3199 16.6451 17.244 16.6667 17.1667 16.6667H3.83333C3.75595 16.6667 3.6801 16.6451 3.61428 16.6044C3.54845 16.5638 3.49526 16.5056 3.46065 16.4363C3.42605 16.3671 3.4114 16.2897 3.41835 16.2126C3.4253 16.1355 3.45357 16.0619 3.5 16L3.83333 15.5558V8.33334C3.83333 6.56523 4.53571 4.86954 5.78595 3.61929C7.0362 2.36905 8.73189 1.66667 10.5 1.66667C12.2681 1.66667 13.9638 2.36905 15.214 3.61929C16.4643 4.86954 17.1667 6.56523 17.1667 8.33334V15.5558ZM8.41667 17.5H12.5833C12.5833 18.0525 12.3638 18.5824 11.9731 18.9731C11.5824 19.3638 11.0525 19.5833 10.5 19.5833C9.94747 19.5833 9.41756 19.3638 9.02686 18.9731C8.63616 18.5824 8.41667 18.0525 8.41667 17.5Z" fill="#94A3B8"/>
</svg>
