<svg width="24" height="24" viewBox="0 0 24 24" fill="none" xmlns="http://www.w3.org/2000/svg">
<path d="M18.5861 19.9999H4.00007C3.90721 19.9999 3.81619 19.9741 3.7372 19.9253C3.65821 19.8765 3.59438 19.8066 3.55285 19.7236C3.51133 19.6405 3.49375 19.5475 3.50209 19.455C3.51043 19.3626 3.54435 19.2742 3.60007 19.1999L4.00007 18.6669V9.99994C4.00007 8.66994 4.32407 7.41594 4.89907 6.31294L1.39307 2.80794L2.80807 1.39294L22.6071 21.1929L21.1921 22.6069L18.5861 19.9999ZM20.0001 15.7859L7.55907 3.34494C8.76381 2.54089 10.1642 2.079 11.6109 2.00855C13.0577 1.9381 14.4963 2.26173 15.7735 2.94492C17.0507 3.62811 18.1184 4.64522 18.8628 5.88773C19.6071 7.13024 20.0002 8.55153 20.0001 9.99994V15.7859ZM9.50007 20.9999H14.5001C14.5001 21.663 14.2367 22.2989 13.7678 22.7677C13.299 23.2366 12.6631 23.4999 12.0001 23.4999C11.337 23.4999 10.7011 23.2366 10.2323 22.7677C9.76346 22.2989 9.50007 21.663 9.50007 20.9999Z" fill="#0A0D13"/>
</svg>
