<svg width="20" height="20" viewBox="0 0 20 20" fill="none" xmlns="http://www.w3.org/2000/svg">
<path d="M2.50033 2.5H17.5003C17.7213 2.5 17.9333 2.5878 18.0896 2.74408C18.2459 2.90036 18.3337 3.11232 18.3337 3.33333V16.6667C18.3337 16.8877 18.2459 17.0996 18.0896 17.2559C17.9333 17.4122 17.7213 17.5 17.5003 17.5H2.50033C2.27931 17.5 2.06735 17.4122 1.91107 17.2559C1.75479 17.0996 1.66699 16.8877 1.66699 16.6667V3.33333C1.66699 3.11232 1.75479 2.90036 1.91107 2.74408C2.06735 2.5878 2.27931 2.5 2.50033 2.5ZM7.08366 11.6667V13.3333H9.16699V15H10.8337V13.3333H11.667C12.2195 13.3333 12.7494 13.1138 13.1401 12.7231C13.5308 12.3324 13.7503 11.8025 13.7503 11.25C13.7503 10.6975 13.5308 10.1676 13.1401 9.77686C12.7494 9.38616 12.2195 9.16667 11.667 9.16667H8.33366C8.22315 9.16667 8.11717 9.12277 8.03903 9.04463C7.96089 8.96649 7.91699 8.86051 7.91699 8.75C7.91699 8.63949 7.96089 8.53351 8.03903 8.45537C8.11717 8.37723 8.22315 8.33333 8.33366 8.33333H12.917V6.66667H10.8337V5H9.16699V6.66667H8.33366C7.78112 6.66667 7.25122 6.88616 6.86052 7.27686C6.46982 7.66756 6.25033 8.19747 6.25033 8.75C6.25033 9.30253 6.46982 9.83244 6.86052 10.2231C7.25122 10.6138 7.78112 10.8333 8.33366 10.8333H11.667C11.7775 10.8333 11.8835 10.8772 11.9616 10.9554C12.0398 11.0335 12.0837 11.1395 12.0837 11.25C12.0837 11.3605 12.0398 11.4665 11.9616 11.5446C11.8835 11.6228 11.7775 11.6667 11.667 11.6667H7.08366Z" fill="#94A3B8"/>
</svg>
