<svg width="24" height="24" viewBox="0 0 24 24" fill="none" xmlns="http://www.w3.org/2000/svg">
<path d="M10.8998 2.10001L20.7988 3.51501L22.2128 13.415L13.0208 22.607C12.8333 22.7945 12.579 22.8998 12.3138 22.8998C12.0487 22.8998 11.7944 22.7945 11.6068 22.607L1.70685 12.707C1.51938 12.5195 1.41406 12.2652 1.41406 12C1.41406 11.7348 1.51938 11.4805 1.70685 11.293L10.8998 2.10001ZM13.7278 10.586C13.9136 10.7717 14.1341 10.919 14.3768 11.0194C14.6195 11.1199 14.8796 11.1716 15.1422 11.1716C15.4049 11.1715 15.6649 11.1197 15.9076 11.0192C16.1502 10.9186 16.3707 10.7713 16.5563 10.5855C16.742 10.3998 16.8893 10.1792 16.9898 9.93657C17.0903 9.69389 17.1419 9.4338 17.1419 9.17115C17.1419 8.9085 17.0901 8.64843 16.9895 8.40579C16.889 8.16315 16.7416 7.9427 16.5558 7.75701C16.3701 7.57132 16.1496 7.42403 15.9069 7.32356C15.6642 7.22309 15.4041 7.17141 15.1415 7.17145C14.611 7.17155 14.1024 7.38236 13.7273 7.75751C13.3523 8.13266 13.1417 8.64141 13.1418 9.17186C13.1419 9.70231 13.3527 10.211 13.7278 10.586Z" fill="#0A0D13"/>
</svg>
