<svg width="20" height="20" viewBox="0 0 20 20" fill="none" xmlns="http://www.w3.org/2000/svg">
<path d="M13.7277 17.4529L12.485 14.9676C11.6382 15.391 10.6972 15.591 9.75143 15.5484C8.80562 15.5059 7.8864 15.2223 7.08105 14.7245C6.2757 14.2268 5.61096 13.5314 5.14997 12.7045C4.68898 11.8776 4.44704 10.9466 4.44713 9.99989H7.22546L4.22359 3.99781C2.78727 5.37885 1.89356 7.22894 1.70456 9.21246C1.51557 11.196 2.04381 13.1815 3.19347 14.809C4.34313 16.4364 6.03805 17.5978 7.97076 18.0827C9.90347 18.5675 11.9459 18.3449 13.7277 17.4529ZM6.27436 2.54693L7.51704 5.03217C8.36383 4.60876 9.30481 4.40883 10.2506 4.45137C11.1964 4.49392 12.1156 4.77753 12.921 5.27526C13.7263 5.773 14.3911 6.46834 14.8521 7.29525C15.3131 8.12216 15.555 9.05318 15.5549 9.99989H12.7766L15.7771 16.002C17.2134 14.6209 18.1071 12.7708 18.2961 10.7873C18.4851 8.8038 17.9568 6.81824 16.8072 5.19083C15.6575 3.56341 13.9626 2.40195 12.0299 1.91713C10.0972 1.43231 8.0547 1.65624 6.27297 2.54831L6.27436 2.54693Z" fill="#94A3B8"/>
</svg>
