<svg width="24" height="24" viewBox="0 0 24 24" fill="none" xmlns="http://www.w3.org/2000/svg">
<path d="M12 2.00001C9.55803 1.99616 7.1997 2.88939 5.373 4.51001L5.374 4.51101L6.274 6.41301C7.38484 5.27451 8.80985 4.493 10.367 4.16831C11.9242 3.84362 13.5428 3.99049 15.016 4.59017C16.4893 5.18985 17.7504 6.2151 18.6381 7.53496C19.5259 8.85482 20 10.4094 20 12H17.5L20.207 17.715C21.3772 16.0393 22.0033 14.0439 22 12C22 6.47701 17.523 2.00001 12 2.00001Z" fill="#0A0D13"/>
<path d="M12 22C14.442 22.0039 16.8003 21.1106 18.627 19.49L18.626 19.489L17.726 17.587C16.6152 18.7255 15.1901 19.507 13.633 19.8317C12.0758 20.1564 10.4572 20.0095 8.98397 19.4099C7.5107 18.8102 6.24964 17.7849 5.36188 16.4651C4.47412 15.1452 3.99997 13.5907 4 12H6.5L3.793 6.28501C2.663 7.90501 2 9.87501 2 12C2 17.523 6.477 22 12 22Z" fill="#0A0D13"/>
<path d="M16 13H12V8H10V15H16V13Z" fill="#0A0D13"/>
</svg>
