<svg width="24" height="24" viewBox="0 0 24 24" fill="none" xmlns="http://www.w3.org/2000/svg">
<path d="M12 14V22H4C4 19.8783 4.84285 17.8434 6.34315 16.3431C7.84344 14.8429 9.87827 14 12 14ZM12 13C8.685 13 6 10.315 6 7C6 3.685 8.685 1 12 1C15.315 1 18 3.685 18 7C18 10.315 15.315 13 12 13Z" fill="#0A0D13"/>
<path d="M14.659 19.14L18.017 22.499L21.377 19.14C21.5859 18.9311 21.7517 18.683 21.8648 18.41C21.9778 18.1371 22.036 17.8445 22.036 17.549C22.036 17.2535 21.9778 16.9609 21.8648 16.688C21.7517 16.415 21.5859 16.1669 21.377 15.958C21.1681 15.7491 20.92 15.5833 20.6471 15.4703C20.3741 15.3572 20.0815 15.299 19.786 15.299C19.4905 15.299 19.198 15.3572 18.925 15.4703C18.652 15.5833 18.4039 15.7491 18.195 15.958L18.018 16.135L17.841 15.958C17.4191 15.536 16.8468 15.299 16.25 15.299C15.9545 15.299 15.662 15.3572 15.389 15.4703C15.116 15.5833 14.8679 15.7491 14.659 15.958C14.4501 16.1669 14.2843 16.415 14.1713 16.688C14.0582 16.9609 14 17.2535 14 17.549C14 18.1457 14.2371 18.718 14.659 19.14Z" fill="#0A0D13"/>
</svg>
