<svg width="48" height="55" viewBox="0 0 48 55" fill="none" xmlns="http://www.w3.org/2000/svg">
<path d="M24 27.5C31.575 27.5 37.7143 21.3447 37.7143 13.75C37.7143 6.15527 31.575 0 24 0C16.425 0 10.2857 6.15527 10.2857 13.75C10.2857 21.3447 16.425 27.5 24 27.5ZM33.6 30.9375H31.8107C29.4321 32.0332 26.7857 32.6562 24 32.6562C21.2143 32.6562 18.5786 32.0332 16.1893 30.9375H14.4C6.45 30.9375 0 37.4043 0 45.375V49.8438C0 52.6904 2.30357 55 5.14286 55H42.8571C45.6964 55 48 52.6904 48 49.8438V45.375C48 37.4043 41.55 30.9375 33.6 30.9375Z" fill="white"/>
</svg>
