<svg width="24" height="24" viewBox="0 0 24 24" fill="none" xmlns="http://www.w3.org/2000/svg">
<path d="M2.58936 4.60922L6.88549 7.51392L11.1673 1.43481C11.2619 1.30033 11.3868 1.19071 11.5317 1.11509C11.6765 1.03946 11.837 1 11.9999 1C12.1628 1 12.3234 1.03946 12.4682 1.11509C12.613 1.19071 12.7379 1.30033 12.8326 1.43481L17.1144 7.51392L21.4105 4.60922C21.5731 4.49952 21.7633 4.4393 21.9585 4.4357C22.1538 4.43211 22.346 4.48527 22.5124 4.58891C22.6788 4.69256 22.8125 4.84235 22.8976 5.02059C22.9828 5.19882 23.0159 5.39806 22.9929 5.59474L21.3123 20.084C21.283 20.3363 21.1634 20.569 20.9762 20.7378C20.7889 20.9067 20.5471 21 20.2966 21H3.70328C3.45274 21 3.21093 20.9067 3.0237 20.7378C2.83648 20.569 2.71687 20.3363 2.68755 20.084L1.00695 5.59371C0.984239 5.3971 1.01747 5.19802 1.10271 5.01994C1.18795 4.84187 1.32165 4.69225 1.48802 4.58875C1.65439 4.48524 1.84649 4.43217 2.04164 4.4358C2.23679 4.43942 2.42684 4.4996 2.58936 4.60922ZM11.9999 14.7757C12.5425 14.7757 13.0629 14.5571 13.4465 14.168C13.8302 13.7789 14.0457 13.2511 14.0457 12.7009C14.0457 12.1506 13.8302 11.6229 13.4465 11.2338C13.0629 10.8447 12.5425 10.6261 11.9999 10.6261C11.4574 10.6261 10.937 10.8447 10.5534 11.2338C10.1697 11.6229 9.95416 12.1506 9.95416 12.7009C9.95416 13.2511 10.1697 13.7789 10.5534 14.168C10.937 14.5571 11.4574 14.7757 11.9999 14.7757Z" fill="#0A0D13"/>
</svg>
