<svg width="21" height="20" viewBox="0 0 21 20" fill="none" xmlns="http://www.w3.org/2000/svg">
<path d="M16.5833 18.3333H4.91666C4.25362 18.3333 3.61774 18.0699 3.1489 17.6011C2.68006 17.1323 2.41666 16.4964 2.41666 15.8333V2.50001C2.41666 2.27899 2.50446 2.06703 2.66074 1.91075C2.81702 1.75447 3.02898 1.66667 3.25 1.66667H14.9167C15.1377 1.66667 15.3496 1.75447 15.5059 1.91075C15.6622 2.06703 15.75 2.27899 15.75 2.50001V12.5H19.0833V15.8333C19.0833 16.4964 18.8199 17.1323 18.3511 17.6011C17.8823 18.0699 17.2464 18.3333 16.5833 18.3333ZM15.75 14.1667V15.8333C15.75 16.0544 15.8378 16.2663 15.9941 16.4226C16.1504 16.5789 16.3623 16.6667 16.5833 16.6667C16.8043 16.6667 17.0163 16.5789 17.1726 16.4226C17.3289 16.2663 17.4167 16.0544 17.4167 15.8333V14.1667H15.75ZM5.75 5.83334V7.50001H12.4167V5.83334H5.75ZM5.75 9.16667V10.8333H12.4167V9.16667H5.75ZM5.75 12.5V14.1667H9.91666V12.5H5.75Z" fill="#94A3B8"/>
</svg>
